<svg xmlns="http://www.w3.org/2000/svg" xmlns:xlink="http://www.w3.org/1999/xlink" version="1.1" x="0px" y="0px" viewBox="0 0 100 125" style="enable-background:new 0 0 100 100;" xml:space="preserve"><style type="text/css">
	.st0{fill:#090B0A;}
	.st1{fill:#040706;}
</style><g><path d="M49.1,55.2c-0.8,1.2-1.1,2.7-0.9,4.2c0.4,3.2,2.6,5.4,5.3,6.1c0.4,0.1,0.7-0.3,0.5-0.7l0,0c-0.1-0.1-0.2-0.2-0.3-0.2   c-2.4-0.6-4.3-2.7-4.6-5.6c-0.1-1.1,0.1-2.2,0.7-3.2c2.6-4.4,8.2-4.1,10.6-0.5c0.7,1.1,1.1,2.4,1,3.8c0,0.1,0,0.2,0.1,0.3l0,0   c0.2,0.3,0.8,0.2,0.8-0.2c0.1-1.5-0.3-3-1.1-4.3C58.4,50.8,52.1,50.4,49.1,55.2z"/><path d="M53.9,65.6c-0.1,0.1-0.3,0.1-0.5,0.1c-2.9-0.8-4.9-3.2-5.4-6.3c-0.2-1.5,0.1-3,0.9-4.3c1.4-2.3,3.7-3.6,6.2-3.6   c2.5,0,4.7,1.2,6.1,3.2c0.9,1.3,1.3,2.9,1.2,4.4c0,0.3-0.2,0.5-0.4,0.5c-0.3,0.1-0.5,0-0.7-0.2c-0.1-0.1-0.1-0.2-0.1-0.4   c0.1-1.3-0.3-2.6-1-3.7c-1.1-1.7-3.1-2.7-5.2-2.7c-2.1,0.1-4,1.2-5.2,3.2c-0.6,0.9-0.8,2-0.7,3.1c0.3,2.7,2,4.9,4.5,5.5   c0.1,0,0.3,0.1,0.3,0.2c0.1,0.2,0.1,0.5,0,0.7C54,65.5,54,65.6,53.9,65.6z M51.5,53c-0.9,0.6-1.6,1.4-2.2,2.3l0,0   c-0.8,1.2-1.1,2.6-0.9,4.1c0.4,3,2.4,5.3,5.1,6c0.1,0,0.2,0,0.3-0.1c0.1-0.1,0.1-0.2,0-0.3c0-0.1-0.1-0.1-0.2-0.1   c-2.6-0.7-4.5-2.9-4.7-5.8c-0.1-1.1,0.2-2.3,0.7-3.3c1.2-2.1,3.2-3.3,5.5-3.3c2.2-0.1,4.2,1,5.4,2.8c0.8,1.2,1.1,2.5,1,3.9   c0,0.1,0,0.1,0,0.2c0.1,0.1,0.2,0.1,0.3,0.1c0.1,0,0.2-0.1,0.2-0.2c0.1-1.5-0.3-3-1.1-4.2c-1.3-2-3.5-3.1-5.8-3.1   C53.8,51.9,52.6,52.3,51.5,53z"/></g><path d="M46.1,53.5c-1.2,1.8-1.6,4-1.3,6.2c0.6,4.7,3.8,8.1,7.8,9.1c0.6,0.2,1-0.5,0.7-1v0c-0.1-0.1-0.2-0.2-0.4-0.3  c-3.6-1-6.4-4-6.9-8.4c-0.2-1.6,0.2-3.3,1.1-4.7c3.9-6.5,12.2-6.1,15.8-0.7c1.1,1.7,1.6,3.6,1.5,5.6c0,0.1,0,0.3,0.1,0.4l0,0  c0.3,0.5,1.1,0.3,1.2-0.3c0.2-2.2-0.4-4.5-1.7-6.4C59.9,46.8,50.6,46.3,46.1,53.5z"/><path d="M64.1,52.8c-2-3-5.4-4.8-9-4.8c-3.7,0-7.1,2-9.2,5.3c-1.2,1.9-1.7,4.1-1.4,6.3c0.6,4.6,3.7,8.2,8,9.3c0.2,0.1,0.5,0,0.7-0.1  c0.1-0.1,0.2-0.1,0.2-0.2c0.2-0.3,0.2-0.7,0-1c-0.1-0.2-0.3-0.3-0.5-0.4c-3.7-1-6.3-4.1-6.7-8.2c-0.2-1.6,0.2-3.2,1-4.6  c1.7-2.9,4.6-4.6,7.7-4.7c3.1-0.1,5.9,1.4,7.6,4c1.1,1.6,1.6,3.5,1.5,5.4c0,0.2,0,0.4,0.1,0.6c0.2,0.3,0.6,0.5,1,0.4  c0.4-0.1,0.6-0.4,0.7-0.8C66,57,65.4,54.7,64.1,52.8z M65.4,59.3c0,0.2-0.2,0.3-0.3,0.4c-0.1,0-0.3,0-0.5-0.2c0-0.1-0.1-0.2-0.1-0.3  c0.1-2-0.4-4-1.5-5.7c-1.8-2.7-4.8-4.3-8.1-4.2c-3.3,0.1-6.3,1.9-8.1,4.9c-0.9,1.5-1.3,3.2-1.1,4.9c0.4,4.3,3.1,7.6,7,8.6  c0.1,0,0.2,0.1,0.2,0.2c0.1,0.2,0.1,0.4,0,0.5c-0.1,0.1-0.2,0.2-0.4,0.2c-4.1-1.1-7-4.5-7.6-8.9c-0.3-2.1,0.2-4.2,1.3-6  c0.9-1.4,2-2.6,3.3-3.4c1.6-1.1,3.5-1.7,5.5-1.7c3.5,0,6.7,1.7,8.6,4.6C65,54.9,65.5,57.1,65.4,59.3z"/><path class="st0" d="M53,81.6H20.2V14.1h49.2v47c0.2,0.1,0.3,0.2,0.5,0.3c0.2-1.2,0.9-2.3,2-3.1c1-0.7,2-1,3-0.8  c0.7,0.1,1.4,0.5,2.1,1c0-0.1,0.1-0.3,0.2-0.4l0,0c0-20.4,0-45.7,0-45.7c0-3.7-3.1-6.8-6.8-6.8H19.2c-3.7,0-6.8,3.1-6.8,6.8v70.9  c0,3.7,3.1,6.8,6.8,6.8h41.7L53,81.6z M44.6,9.2c0.4,0,0.8,0.4,0.8,0.8c0,0.4-0.4,0.8-0.8,0.8s-0.8-0.4-0.8-0.8  C43.8,9.6,44.2,9.2,44.6,9.2z M45.1,87.6c-1.5,0.4-2.8-1-2.4-2.4c0.2-0.7,0.7-1.2,1.4-1.4c1.5-0.4,2.8,1,2.4,2.4  C46.3,86.8,45.7,87.4,45.1,87.6z"/><g><path class="st1" d="M54,80l9.7,10.3c5.3,5.7,13.9,6.8,20.5,2.6c0.1,0,0.1-0.1,0.2-0.1l3.1-2c6.5-4.2,8.4-12.7,4.4-19.3l-7.6-12.4   c-0.9-1.4-2-2.1-3-2c-1.1,0.1-2,1-2.3,1.7c-0.2,0.5-0.3,1-0.1,1.2c0,0,0,0.1,0.1,0.1c0,0,2.5,4.6,3.6,6.2c0.3,0.4,0.1,1-0.3,1.3   l0,0c-0.4,0.3-1,0.1-1.3-0.3l-3.6-5.6c-0.9-1.5-1.9-2.3-2.7-2.5c-0.5-0.1-1.1,0.1-1.6,0.5c0,0,0,0-0.1,0c-1.2,0.8-1.6,2.5-0.8,3.7   l4.1,6.5c0.3,0.4,0.1,1-0.3,1.3h-0.1c-0.4,0.3-1,0.1-1.3-0.3l-3.7-5.8c-0.6-1-1.5-2.2-2.6-2.5c-0.5-0.1-1.1,0-1.8,0.5   c-0.5,0.4-0.8,0.8-0.9,1.3c-0.2,1.1,0.3,2.5,1,3.8l2.4,3.7c0.5,0.7,0.8,1.2,0.9,1.5c0.2,0.4,0,1-0.4,1.2s-1,0.1-1.2-0.3l-0.9-1.4   c0-0.1-0.1-0.1-0.1-0.2c-0.7-1-1.6-2.3-2.3-3.7l-6.7-10.7c-0.8-1.3-2.5-1.7-3.7-0.9s-1.6,2.5-0.8,3.7l13.2,21   c0.2,0.4,0.2,0.9-0.2,1.2c-0.4,0.3-0.9,0.3-1.2,0c-0.2-0.1-0.4-0.4-0.7-0.6c-1.5-1.4-4.9-4.8-8-4.6C55.8,78.5,54.9,79,54,80z"/></g><text x="0" y="115" fill="#000000" font-size="5px" font-weight="bold" font-family="'Helvetica Neue', Helvetica, Arial-Unicode, Arial, Sans-serif">Created by FBianchi</text><text x="0" y="120" fill="#000000" font-size="5px" font-weight="bold" font-family="'Helvetica Neue', Helvetica, Arial-Unicode, Arial, Sans-serif">from the Noun Project</text></svg>