<?xml version="1.0" encoding="UTF-8"?>
<svg width="214px" height="303px" viewBox="0 0 214 303" version="1.1" xmlns="http://www.w3.org/2000/svg" xmlns:xlink="http://www.w3.org/1999/xlink">
    <!-- Generator: Sketch 49.1 (51147) - http://www.bohemiancoding.com/sketch -->
    <title>Group 13</title>
    <desc>Created with Sketch.</desc>
    <defs></defs>
    <g id="Page-1" stroke="none" stroke-width="1" fill="none" fill-rule="evenodd">
        <g id="Group-13" transform="translate(1.000000, 1.000000)" fill="#02263E" fill-rule="nonzero" stroke="#02263E" stroke-width="2">
            <path d="M161.007586,133.772717 C160.907738,135.185925 161.802673,136.477373 163.155488,136.872276 C164.547259,138.587995 165.247226,140.767064 165.116616,142.977468 C165.273487,145.20549 164.571172,147.408689 163.155488,149.129623 C161.761222,149.573709 160.891367,150.967469 161.099818,152.423401 C161.308269,153.879332 162.533775,154.969619 163.995971,155 C167.311212,155 171,149.740142 171,142.977468 C171,136.214794 167.404599,131.236715 164.136052,131.001899 C162.527784,130.945279 161.155147,132.160996 161.007586,133.772717 Z" id="Shape"></path>
            <path d="M29.9051375,149.130645 C28.4952966,147.41001 27.7958795,145.207195 27.9521036,142.97956 C27.8220325,140.769541 28.5191106,138.590851 29.9051375,136.875431 C31.3447335,136.424607 32.2232604,134.958202 31.9505073,133.461374 C31.6777542,131.964546 30.3398478,130.909947 28.8356189,131.006075 C25.6270631,131.24085 22,136.218063 22,142.97956 C22,149.741058 25.6735639,154.90609 28.9751214,155 C30.4312829,154.969624 31.6517309,153.879527 31.8593217,152.423849 C32.0669124,150.968171 31.2006467,149.574653 29.8121359,149.130645 L29.9051375,149.130645 Z" id="Shape"></path>
            <path d="M211.03526,128.869247 C208.257986,119.125727 201.102595,111.239925 191.688013,107.547062 C178.774195,101.522251 176.097513,93.4264098 173.232993,85.0010872 C169.570165,74.1752537 165.813418,62.9258006 142.991181,56.7597824 C140.92497,56.1949563 129.185135,52.0528983 122.939544,49.6994562 C122.321235,41.854721 118.073181,34.7530007 111.46112,30.5103043 C104.849059,26.267608 96.6362278,25.3736746 89.2696992,28.0948581 C83.4467415,9.73800995 55.0363427,0.512517049 53.7684406,0.0888974771 C52.5399911,-0.216727341 51.2521678,0.281855835 50.547645,1.33583452 C49.8431221,2.38981321 49.8729187,3.77326029 50.6221651,4.79578161 C50.6221651,4.79578161 64.7099661,20.70505 68.8423877,33.0370864 L69.3119811,34.4491516 C61.2577539,25.2879701 50.6108444,18.8028375 38.7884122,15.8569593 C37.3470898,15.5631163 35.9053554,16.3580319 35.3812611,17.7355284 C34.8571668,19.1130248 35.4047143,20.6683339 36.675242,21.4110826 C47.4477842,27.9500798 55.4136396,38.2660988 59.0278863,50.35842 C48.5271639,41.2079879 36.3828582,34.1472264 23.2448717,29.5539921 C21.8925262,29.0767301 20.3921496,29.6233903 19.6612347,30.8596854 C18.9303198,32.0959805 19.1724138,33.6776237 20.2394742,34.637427 C27.5181714,41.2270648 46.1610281,60.148739 49.2603443,71.4923298 C42.684412,77.8806403 37.4616856,85.532887 33.9046412,93.9912359 C30.5081359,102.30597 27.913538,110.927513 26.1563506,119.737892 C17.6097513,121.761852 11.1763222,131.175621 11.1763222,142.472142 C11.1763222,153.768664 17.9384667,163.888465 26.9077,165.535875 C33.9281819,188.672868 51.6067788,207.02304 74.4305488,214.86402 L74.4305488,218.723665 L28.9269515,230.914495 C11.9198375,235.497067 0.0735427955,250.917741 0,268.569568 L0,297.987594 C3.33666156e-14,299.6513 1.34556232,301 3.00539755,301 L190.514029,301 C192.173865,301 193.519427,299.6513 193.519427,297.987594 L193.519427,268.663706 C193.445884,251.011879 181.599589,235.591205 164.592475,231.008633 L118.948,218.723665 L118.948,214.86402 C141.879722,207.099306 159.675056,188.736832 166.752605,165.535875 C175.721838,163.935534 182.483983,154.286422 182.483983,142.472142 C182.503275,137.94429 181.406372,133.481774 179.290748,129.481142 C184.202891,131.662799 188.390306,135.206721 191.359297,139.695081 C199.201507,151.980048 194.552532,167.936386 194.505573,167.936386 C194.042024,169.351916 194.680443,170.894477 196.007534,171.565455 C197.334625,172.236434 198.95173,171.834268 199.811978,170.61931 C200.422449,169.77207 215.96599,148.355748 211.03526,128.869247 Z M117.069627,51.6292787 C117.074063,52.9096351 116.948186,54.1871058 116.693952,55.4418549 C110.17912,53.4557429 103.404829,52.4562673 96.5953558,52.4765179 C94.9987383,52.4765179 93.4490802,52.4765179 91.8994221,52.4765179 L89.5514552,52.7118621 L87.3443664,52.9472063 L84.1511315,53.4649635 L82.9771481,53.4649635 L79.2673605,54.3592715 L78.9386451,54.3592715 C78.7539056,53.3023744 78.6596438,52.2315823 78.6568891,51.1585903 C78.6568891,40.5394681 87.2453611,31.9309686 97.8397782,31.9309686 C108.434195,31.9309686 117.022667,40.5394681 117.022667,51.1585903 L117.069627,51.6292787 Z M62.6907146,10.2086984 C71.0025172,14.3507564 81.4744493,21.3169449 83.8224162,30.7307132 C80.9918978,32.6581421 78.5798563,35.1398525 76.7315563,38.0263836 L74.5714268,31.2484704 C71.6981715,23.6865677 67.6919411,16.6077324 62.6907146,10.2557672 L62.6907146,10.2086984 Z M55.5059361,30.0717494 C63.4575168,35.4880822 69.5041761,43.2781345 72.786972,52.3353113 C72.8354256,53.7753392 73.008256,55.2084523 73.3035247,56.6185759 C71.3781919,57.3246085 69.4528591,58.07771 67.621445,58.972018 C65.976186,48.5038281 61.8006303,38.5980968 55.4589767,30.1188182 L55.5059361,30.0717494 Z M35.970852,41.5094778 C45.3627193,46.216362 56.2572855,53.4649635 61.1880158,62.4551122 C58.8250616,63.8840252 56.5511486,65.455898 54.378912,67.1619964 C49.6534277,57.6800951 43.4203288,49.0319709 35.9238926,41.5565467 L35.970852,41.5094778 Z M162.761061,236.656894 C177.239328,240.472452 187.316797,253.611452 187.273835,268.616637 L187.273835,295.022257 L173.092115,295.022257 L173.092115,281.842982 C173.092115,280.179276 171.746553,278.830576 170.086718,278.830576 C168.426883,278.830576 167.08132,280.179276 167.08132,281.842982 L167.08132,295.069326 L26.1563506,295.069326 L26.1563506,281.842982 C26.1563506,280.179276 24.8107883,278.830576 23.150953,278.830576 C21.4911178,278.830576 20.1455555,280.179276 20.1455555,281.842982 L20.1455555,295.069326 L5.96369894,295.069326 L5.96383577,268.663706 C5.92087425,253.658521 15.9983433,240.519521 30.4766096,236.703963 L74.4305488,224.936752 L74.4305488,226.395887 C74.4305488,233.738626 83.8224162,239.24568 96.6892744,239.24568 C109.556133,239.24568 118.948,233.738626 118.948,226.395887 L118.948,224.936752 L162.761061,236.656894 Z M112.984164,216.370223 L112.984164,226.160542 C112.984164,228.937604 106.644654,233.032593 96.7362338,233.032593 C86.8278137,233.032593 80.4883032,228.984673 80.4883032,226.160542 L80.4883032,216.746774 C85.3211154,217.771594 90.2467998,218.292127 95.1865757,218.300046 L96.5953558,218.300046 C98.3328512,218.300046 100.070347,218.300046 101.760883,218.300046 L103.40446,218.300046 L107.208166,217.829357 L108.663905,217.829357 L112.984164,216.370223 Z M176.426228,142.472142 C176.426228,151.885911 170.978945,159.558132 164.310719,159.746407 C162.988098,159.781782 161.844135,160.679977 161.493159,161.958643 C155.134045,185.196129 137.164435,203.439474 114.064229,210.110067 L111.669303,210.721962 L109.180458,211.286788 L106.691613,211.757477 L103.827094,212.134028 L101.713923,212.134028 C100.023387,212.134028 98.3328512,212.134028 96.6423151,212.134028 C66.3282771,211.698848 39.9417977,191.253903 31.8853897,161.958643 C31.5344142,160.679977 30.3904507,159.781782 29.0678295,159.746407 C22.3996036,159.558132 16.7644832,151.791773 16.7644832,142.472142 C16.7644832,133.152512 21.8830509,125.762704 28.4573581,125.292015 C29.210529,125.24191 29.9161072,124.905136 30.4296502,124.350639 L66.4944209,89.9903844 C86.170383,112.159809 107.302085,115.36049 131.67398,119.031859 C142.667066,120.489784 153.564873,122.595843 164.310719,125.339084 L164.874231,125.339084 C171.495498,126.092186 176.426228,133.481994 176.426228,142.472142 Z M201.831229,154.615904 C201.644649,148.154866 199.766055,141.856639 196.383946,136.353193 C190.420111,126.939425 179.995138,121.197026 165.7195,119.220135 C154.898626,116.435019 143.922067,114.297457 132.847964,112.818772 C107.865597,109.053265 88.0957158,106.087928 69.3119811,83.4478154 C68.7855783,82.8116741 68.0215391,82.4202545 67.1988109,82.3652321 C66.3670102,82.2898336 65.5438042,82.5820656 64.9447628,83.1654024 L33.6698445,113.148254 C35.2178736,107.454516 37.1475931,101.872013 39.4458429,96.4388156 C46.5375417,79.7436105 60.5514205,66.9865164 77.8116211,61.5137354 C82.6403634,59.968093 87.6394493,59.0196874 92.6977308,58.6896049 L93.0264462,58.6896049 C94.5291449,58.6896049 96.0944562,58.6896049 97.7223798,58.6896049 L98.6146072,58.6896049 C99.976428,58.6896049 101.338249,58.6896049 102.747029,58.9249491 L103.498378,58.9249491 C104.954118,58.9249491 106.409857,59.3014999 107.865597,59.5368441 L108.194312,59.5368441 C111.4826,60.1396836 114.717471,61.0053768 117.867935,62.1256303 C134.172065,67.9675342 147.298359,80.3735896 154.073584,96.344678 C154.721957,97.8784068 156.488008,98.5949037 158.018168,97.9450186 C159.548329,97.2951335 160.263159,95.5249647 159.614786,93.9912359 C152.559531,77.3196408 139.178971,64.1449555 122.422991,57.3716774 C122.422991,56.8068513 122.751706,56.2420252 122.845625,55.6771991 C128.621623,57.7482281 139.328352,61.6078731 141.62936,62.219768 C161.399241,67.7738913 164.357679,76.3404204 167.78571,86.7897032 C170.419639,98.3552024 178.33706,108.000354 189.152209,112.818772 C196.907096,115.792655 202.842013,122.211051 205.212302,130.187175 C206.742983,138.482481 205.556981,147.051514 201.831229,154.615904 Z" id="Shape"></path>
            <path d="M132.641168,101.099102 C98.4628153,96.9778397 95.3086147,87.9859949 94.9790713,87.4708371 C94.7036057,85.9353969 93.2904559,84.8667334 91.7295438,85.0134533 C90.1686317,85.1601732 88.9817046,86.4732342 89.0002135,88.0328274 C89.0002135,90.3744537 91.919026,102.082585 131.746693,107 L132.123314,107 C133.659843,106.930752 134.897266,105.721292 134.993963,104.194221 C135.09066,102.66715 134.015583,101.31278 132.499935,101.052269 L132.641168,101.099102 Z" id="Shape"></path>
            <path d="M142.586542,131.000423 L111.035671,131.000423 C108.217816,130.975133 105.507377,132.084603 103.51036,134.080776 C101.513343,136.07695 100.396306,138.793337 100.408999,141.622604 L100.408999,144.502396 L93.6850426,144.502396 L93.6850426,141.622604 C93.6850426,138.817948 92.5753579,136.128162 90.6001064,134.14497 C88.624855,132.161778 85.9458392,131.047633 83.1524118,131.047633 L51.4604783,131.047633 C44.5787462,131.047633 39,136.648805 39,143.558202 L39,148.940107 C39,157.257456 45.7155473,164 53.9995946,164 L78.6854479,164 C86.319707,163.969066 92.7047812,158.168871 93.4969599,150.545237 L100.50304,150.545237 C101.295219,158.168871 107.680293,163.969066 115.314552,164 L140.000405,164 C148.284453,164 155,157.257456 155,148.940107 L155,143.510992 C155.000049,136.61999 149.449905,131.026427 142.586542,131.000423 Z M87.5253344,148.845688 C87.5253344,153.825668 83.5044268,157.86274 78.5443859,157.86274 L53.9995946,157.86274 C49.1131576,157.759972 45.2056569,153.752844 45.2067288,148.845688 L45.2067288,143.510992 C45.1277036,139.956593 47.9209126,137.004553 51.4604783,136.901635 L83.1524118,136.901635 C85.7492919,136.901635 87.8544791,139.015285 87.8544791,141.622604 L87.5253344,148.845688 Z M148.887313,148.845688 C148.887313,153.825668 144.866405,157.86274 139.906364,157.86274 L115.361573,157.86274 C112.971541,157.875303 110.675103,156.930845 108.980665,155.238456 C107.286227,153.546067 106.333571,151.245361 106.333604,148.845688 L106.333604,141.622604 C106.333604,139.015285 108.438791,136.901635 111.035671,136.901635 L142.727604,136.901635 C146.28533,136.901635 149.169437,139.797336 149.169437,143.369363 L148.887313,148.845688 Z" id="Shape"></path>
        </g>
    </g>
</svg>