<?xml version="1.0" encoding="UTF-8"?>
<svg width="284px" height="310px" viewBox="0 0 284 310" version="1.1" xmlns="http://www.w3.org/2000/svg" xmlns:xlink="http://www.w3.org/1999/xlink">
    <!-- Generator: Sketch 49.1 (51147) - http://www.bohemiancoding.com/sketch -->
    <title>Group 8</title>
    <desc>Created with Sketch.</desc>
    <defs></defs>
    <g id="Page-1" stroke="none" stroke-width="1" fill="none" fill-rule="evenodd">
        <g id="Group-8" transform="translate(1.000000, 2.000000)" fill="#02263E" fill-rule="nonzero" stroke="#02263E" stroke-width="2">
            <path d="M126.471239,143.826187 C126.117858,143.472806 126.117858,143.472806 126.471239,143.826187 Z M149.441023,115.555683 C148.734261,115.202302 148.027498,114.49554 147.320735,114.142158 C147.320735,114.142158 148.027498,114.49554 149.441023,115.555683 Z M161.102606,193.299568 C160.749225,193.299568 160.749225,193.65295 160.395843,193.65295 C161.102606,193.299568 161.102606,193.299568 161.102606,193.299568 Z M87.2459153,183.758273 C86.892534,183.404892 86.5391527,183.051511 86.1857714,182.698129 C86.892534,183.051511 86.892534,183.758273 87.2459153,183.758273 Z M166.756707,143.472806 C167.110088,143.472806 166.756707,143.472806 166.756707,143.472806 Z M103.854836,223.69036 C103.854836,223.69036 103.854836,223.69036 103.854836,223.69036 C103.501455,223.69036 103.148074,223.69036 102.794692,223.69036 L103.854836,223.69036 Z M51.2010232,163.262158 C50.8476419,159.021583 50.8476419,154.781007 50.8476419,150.893813 C51.2010232,146.653237 51.9077858,142.059281 53.6746922,137.465324 C53.6746922,137.818705 53.6746922,138.172086 53.6746922,138.525468 C53.6746922,138.525468 53.321311,139.938993 52.9679297,140.645755 C52.2611671,145.239712 52.6145484,143.826187 53.321311,140.645755 C54.0280735,137.818705 55.4415987,133.578129 55.79498,133.578129 C56.1483613,132.164604 57.2085052,129.690935 58.6220304,126.863885 C60.0355556,124.390216 61.4490807,121.563165 62.1558433,119.796259 C67.4565627,113.082014 72.7572822,107.781295 78.4113829,103.540719 C84.0654836,99.3001439 89.7195843,96.1197122 96.0804476,94.3528058 C94.6669225,95.0595683 95.7270663,94.7061871 96.7872102,94.3528058 C98.2007354,93.9994245 99.9676419,93.6460432 99.6142606,93.6460432 C105.268361,92.5858993 103.501455,92.232518 108.448793,91.5257554 C109.862318,91.5257554 111.629225,91.5257554 113.04275,91.5257554 C119.050232,90.8189928 120.817138,91.1723741 122.937426,91.1723741 C124.704333,91.5257554 126.82462,91.8791367 132.478721,92.232518 C139.899728,92.5858993 149.087642,96.4730935 158.275556,102.127194 L158.275556,102.480576 C161.809369,104.600863 164.283038,107.074532 166.403325,109.19482 C168.523613,111.315108 170.29052,113.435396 172.410807,116.262446 C173.11757,118.029353 171.350663,115.202302 170.997282,115.555683 C175.237858,120.856403 169.230376,114.49554 172.410807,118.029353 C174.884476,121.916547 177.358145,126.157122 179.478433,130.397698 C181.598721,134.638273 182.658865,139.585612 183.012246,144.179568 C184.425771,154.427626 180.891958,162.555396 181.24534,164.675683 C181.598721,162.908777 181.952102,161.141871 182.305484,159.728345 C181.598721,164.322302 180.185196,168.916259 178.418289,173.156835 L178.064908,173.510216 C177.004764,175.983885 174.531095,180.22446 171.350663,184.111655 C168.170232,187.998849 164.283038,191.179281 161.102606,193.299568 C161.102606,193.299568 160.749225,193.299568 160.395843,193.65295 C157.215412,195.419856 154.741743,195.773237 152.268074,196.126619 C150.147786,196.126619 148.027498,196.48 144.493685,195.773237 L145.200448,195.773237 C143.08016,195.419856 140.606491,194.713094 138.486203,192.946187 C137.77944,192.592806 137.426059,191.886043 136.719297,191.532662 C136.365915,191.179281 136.365915,190.825899 136.012534,190.825899 L135.659153,190.472518 L135.659153,190.119137 C135.305771,189.412374 135.305771,189.412374 134.95239,189.058993 C134.599009,189.412374 134.599009,189.765755 133.892246,190.119137 C133.538865,190.119137 133.892246,190.119137 133.538865,190.472518 L132.478721,191.179281 C131.771958,191.532662 131.065196,192.239424 130.358433,192.592806 C127.531383,194.359712 124.350951,195.773237 120.817138,196.833381 C113.749512,198.600288 106.681886,197.540144 101.027786,195.419856 C101.027786,195.066475 98.2007354,194.006331 95.3736851,191.886043 C92.900016,190.119137 90.0729656,187.292086 87.9526779,184.465036 C88.6594404,185.171799 89.0128217,185.171799 89.0128217,185.52518 C85.4790088,181.637986 83.0053397,176.337266 81.9451958,171.036547 C80.885052,165.735827 80.885052,160.081727 81.2384333,154.781007 L81.2384333,155.134388 C81.5918145,153.014101 82.2985771,149.126906 83.7121023,145.239712 C85.1256275,141.705899 87.2459153,138.525468 87.9526779,137.818705 C91.1331095,132.871367 95.3736851,128.27741 101.381167,125.45036 C107.388649,122.623309 114.809656,120.856403 123.290807,122.623309 C122.937426,122.623309 122.584045,122.623309 122.584045,122.623309 C126.82462,123.330072 130.358433,125.096978 133.185484,127.217266 C133.892246,127.570647 134.599009,128.27741 134.95239,128.630791 C135.305771,128.984173 135.659153,129.337554 136.012534,129.690935 C136.719297,130.397698 137.426059,131.10446 138.132822,132.164604 C138.132822,132.164604 138.486203,132.517986 138.486203,132.517986 L138.486203,132.164604 L138.486203,131.457842 C138.486203,131.10446 138.839584,130.397698 138.839584,130.044317 L139.192966,128.984173 C139.192966,128.630791 139.192966,128.27741 139.546347,127.570647 C139.546347,126.863885 139.899728,126.157122 139.899728,125.096978 C141.313253,125.096978 142.373397,125.096978 143.786922,125.45036 C144.847066,125.45036 145.553829,125.45036 146.613973,125.803741 C146.967354,125.803741 147.320735,125.803741 147.674117,125.803741 L150.147786,125.803741 C150.854548,122.976691 151.20793,122.269928 151.20793,125.803741 L152.621455,125.803741 L152.621455,126.510504 C152.974836,126.510504 152.974836,126.863885 152.974836,126.863885 C152.974836,126.863885 152.621455,126.863885 152.621455,126.863885 L150.147786,147.36 C149.794404,152.307338 149.441023,158.31482 148.734261,165.382446 C148.027498,169.26964 147.674117,172.450072 147.674117,176.690647 C147.674117,178.457554 148.380879,180.931223 150.501167,181.637986 C152.621455,182.344748 155.095124,181.637986 157.215412,180.22446 C156.508649,180.577842 155.801886,180.577842 155.095124,180.931223 C157.922174,179.871079 160.395843,177.750791 161.809369,175.277122 C163.576275,172.803453 164.636419,170.329784 165.696563,167.502734 C166.403325,164.322302 163.576275,171.389928 165.696563,165.382446 C167.463469,159.728345 167.463469,157.961439 167.816851,156.547914 C167.816851,155.134388 168.170232,153.367482 168.170232,147.36 C168.523613,148.066763 168.523613,154.427626 168.876994,153.014101 C168.876994,152.307338 168.876994,149.833669 168.523613,147.713381 C168.523613,145.946475 168.170232,144.179568 167.816851,144.179568 L168.170232,143.826187 C167.816851,141.705899 167.816851,139.585612 166.756707,136.758561 C166.049944,135.345036 165.696563,134.284892 166.756707,137.818705 C165.696563,134.991655 164.283038,131.457842 162.16275,128.630791 C160.042462,125.803741 157.922174,123.330072 156.508649,121.563165 C151.914692,117.32259 153.681599,118.382734 152.621455,116.969209 C151.20793,115.909065 148.734261,114.49554 148.734261,114.848921 C148.380879,114.848921 148.380879,114.49554 148.027498,114.49554 C147.320735,114.142158 146.613973,113.788777 145.553829,113.435396 C140.25311,110.254964 134.599009,108.841439 128.944908,108.488058 C123.290807,108.134676 117.990088,108.134676 112.689369,108.841439 C115.516419,108.134676 120.463757,108.134676 120.463757,107.781295 C117.636707,107.781295 114.456275,108.134676 111.629225,108.841439 C115.163038,108.134676 117.990088,107.781295 116.576563,107.427914 C104.208217,108.841439 93.6067786,113.788777 83.7121023,124.743597 C83.358721,124.743597 81.5918145,126.510504 79.8249081,128.984173 C78.0580016,131.457842 76.2910951,134.638273 74.8775699,136.758561 C75.2309512,136.051799 75.2309512,136.051799 75.2309512,136.051799 C76.2910951,133.931511 76.6444764,133.224748 74.8775699,137.818705 C74.8775699,137.818705 74.8775699,137.818705 74.8775699,137.818705 C74.5241886,138.525468 74.5241886,139.23223 74.1708074,139.938993 C72.7572822,143.472806 72.7572822,143.119424 73.4640448,140.999137 C72.4039009,143.826187 71.6971383,147.006619 72.0505196,144.53295 C70.2836131,147.713381 70.2836131,149.833669 70.2836131,151.600576 C70.2836131,153.367482 70.2836131,154.781007 70.6369944,156.901295 C70.6369944,161.141871 70.9903757,164.322302 71.6971383,167.856115 C72.4039009,171.389928 73.4640448,174.923741 75.9377138,180.22446 L75.2309512,178.810935 C75.9377138,180.22446 76.2910951,181.284604 76.6444764,182.698129 C77.351239,184.111655 78.0580016,185.878561 79.8249081,188.35223 C81.9451958,189.765755 84.4188649,192.946187 88.3060592,196.48 C92.1932534,200.013813 97.4939728,203.547626 104.208217,204.961151 C102.794692,203.901007 109.508937,206.021295 108.802174,205.314532 C115.163038,206.728058 121.523901,207.081439 127.531383,206.374676 C133.892246,205.667914 139.899728,204.254388 147.320735,202.134101 L146.613973,202.840863 C148.380879,202.487482 150.854548,201.780719 153.681599,200.367194 C155.095124,199.660432 156.155268,199.30705 157.922174,198.600288 C160.395843,197.186763 162.516131,196.126619 164.636419,195.066475 C165.343181,196.48 165.696563,197.893525 166.403325,198.953669 C165.696563,197.186763 166.403325,199.660432 167.110088,202.134101 C167.110088,202.487482 167.110088,202.840863 167.463469,202.840863 C167.463469,202.840863 167.463469,203.194245 167.463469,203.194245 C167.463469,203.547626 167.463469,203.547626 167.463469,203.901007 C167.463469,204.254388 167.463469,204.254388 167.110088,203.547626 C167.463469,204.254388 168.170232,205.667914 168.876994,207.43482 C169.583757,208.848345 169.937138,210.615252 170.643901,212.028777 C170.643901,212.382158 170.997282,213.088921 170.997282,213.088921 L169.230376,213.795683 C168.523613,214.149065 167.816851,214.502446 167.110088,214.855827 C166.403325,215.209209 165.696563,215.56259 164.9898,215.915971 C164.283038,216.269353 163.929656,216.269353 163.576275,216.622734 C162.869512,216.976115 162.16275,217.329496 161.455987,217.682878 C160.042462,218.036259 159.335699,218.38964 159.335699,218.38964 C156.86203,219.096403 146.967354,222.630216 140.25311,223.336978 C137.426059,224.043741 134.599009,224.750504 131.771958,225.103885 C132.832102,224.750504 133.892246,224.750504 134.599009,224.397122 C130.005052,225.103885 129.298289,224.750504 131.065196,224.397122 C128.944908,224.397122 127.884764,224.750504 125.057714,224.750504 L126.471239,224.397122 C120.817138,224.397122 118.696851,225.103885 122.937426,225.103885 C117.283325,225.457266 115.516419,225.103885 114.102894,225.103885 C112.689369,224.750504 111.275843,224.750504 105.975124,224.043741 C105.268361,224.043741 104.561599,224.043741 103.854836,224.043741 C98.2007354,222.983597 97.1405915,222.276835 96.4338289,221.923453 C95.3736851,221.216691 94.6669225,220.863309 89.0128217,218.743022 L89.0128217,218.38964 C86.1857714,217.329496 83.7121023,215.56259 84.4188649,216.622734 C79.4715268,213.795683 74.8775699,210.261871 70.9903757,206.021295 C67.1031815,201.780719 63.9227498,197.540144 61.802462,193.65295 C58.2686491,187.998849 62.8626059,196.126619 61.0956994,193.299568 C58.9754117,190.472518 57.9152678,187.998849 57.2085052,185.878561 C56.5017426,183.758273 55.79498,181.637986 55.0882174,178.457554 L55.4415987,180.22446 C54.0280735,175.983885 52.9679297,171.743309 52.6145484,167.502734 L53.321311,169.26964 C52.9679297,166.44259 52.6145484,163.262158 52.6145484,160.435108 C50.8476419,157.961439 50.8476419,160.788489 51.2010232,163.262158 Z M135.305771,157.254676 C135.305771,156.901295 135.305771,156.901295 135.305771,156.547914 C135.305771,155.48777 135.305771,154.781007 134.95239,153.720863 C134.599009,153.014101 134.245627,152.660719 133.892246,151.953957 C133.892246,150.893813 133.892246,150.18705 132.832102,149.126906 L132.478721,149.480288 C132.478721,148.773525 131.771958,148.066763 131.418577,147.713381 C131.065196,147.713381 131.418577,148.420144 130.711815,148.066763 C130.005052,147.006619 130.358433,147.36 129.298289,146.653237 C129.651671,146.653237 130.005052,147.006619 130.005052,146.653237 C129.651671,146.653237 128.944908,145.946475 128.944908,146.299856 L129.298289,145.946475 C128.944908,145.946475 128.944908,145.593094 128.944908,145.239712 C128.591527,145.239712 128.591527,145.239712 128.944908,145.593094 C128.238145,145.239712 127.178002,144.886331 126.82462,144.53295 C126.117858,144.179568 126.82462,143.826187 126.82462,143.472806 C126.471239,143.472806 126.117858,143.472806 126.117858,143.472806 L125.764476,143.472806 C124.704333,142.412662 123.290807,143.119424 122.230663,142.059281 C122.584045,142.059281 122.937426,142.412662 123.290807,142.059281 L122.230663,141.705899 C122.584045,141.705899 122.937426,141.705899 122.937426,141.352518 C121.523901,140.999137 120.110376,141.352518 118.343469,141.352518 C118.343469,140.999137 117.283325,141.352518 116.576563,140.999137 C116.576563,140.999137 116.576563,140.999137 116.576563,141.352518 C116.929944,141.352518 116.929944,141.352518 116.223181,141.705899 C116.223181,141.705899 116.223181,141.705899 116.223181,141.705899 C116.223181,141.705899 115.8698,141.705899 115.8698,142.059281 C115.516419,142.059281 115.516419,141.705899 115.516419,141.705899 C115.163038,141.705899 114.809656,141.705899 115.163038,141.352518 C114.102894,141.352518 114.102894,142.059281 113.749512,142.412662 C112.689369,142.412662 112.335987,142.766043 111.275843,143.119424 C110.922462,143.119424 110.569081,142.766043 109.862318,143.119424 C110.215699,144.886331 108.448793,143.826187 107.388649,145.239712 C107.74203,145.593094 107.035268,145.946475 107.388649,145.946475 C105.975124,146.653237 105.975124,148.066763 104.561599,149.126906 C103.854836,149.126906 103.501455,150.540432 103.854836,150.893813 C103.501455,150.540432 103.148074,151.247194 103.148074,150.893813 C103.501455,151.247194 102.794692,152.660719 102.794692,152.660719 C102.08793,152.660719 102.441311,154.074245 101.734548,154.427626 L102.08793,155.48777 L101.734548,155.134388 C101.734548,155.48777 101.381167,155.48777 101.381167,155.48777 C101.381167,155.841151 101.381167,155.841151 101.381167,156.194532 L102.08793,155.48777 C101.734548,156.194532 102.441311,156.547914 102.794692,155.841151 C103.501455,157.254676 102.08793,156.547914 102.794692,157.608058 L103.501455,157.961439 L103.148074,157.961439 C103.501455,159.021583 102.08793,158.31482 102.794692,159.728345 L102.441311,159.728345 C102.441311,160.081727 102.441311,160.435108 102.794692,160.435108 C102.794692,161.495252 102.441311,162.908777 102.08793,163.968921 C102.08793,164.675683 102.441311,163.61554 102.794692,163.968921 C103.501455,164.675683 102.794692,165.029065 102.794692,165.735827 L103.148074,165.382446 C103.148074,165.735827 103.148074,166.44259 103.148074,166.795971 L102.794692,166.795971 L102.794692,167.856115 C103.148074,168.209496 102.794692,167.856115 103.148074,167.502734 C103.148074,168.562878 104.561599,168.916259 104.208217,169.976403 L103.854836,169.976403 C103.854836,169.976403 103.854836,169.976403 103.854836,169.623022 C103.148074,168.916259 103.854836,170.329784 103.501455,170.683165 C103.854836,170.683165 104.208217,171.743309 104.91498,171.743309 C104.91498,173.510216 106.681886,173.863597 107.388649,175.277122 C107.035268,175.277122 107.388649,175.630504 107.388649,175.983885 C107.74203,176.690647 108.095412,175.983885 108.448793,176.337266 L108.448793,177.044029 C109.862318,177.044029 108.802174,178.104173 109.862318,178.457554 C110.569081,178.104173 111.275843,179.517698 112.689369,179.164317 L112.689369,179.517698 C113.749512,179.517698 114.102894,180.22446 114.809656,179.871079 C115.163038,180.22446 114.456275,180.22446 114.809656,180.577842 C115.516419,180.22446 114.456275,181.284604 115.163038,180.931223 C116.223181,181.284604 117.283325,179.517698 118.343469,179.164317 C119.403613,178.457554 120.463757,179.517698 120.463757,178.457554 L119.756994,178.457554 C120.110376,178.457554 120.817138,178.104173 121.17052,177.750791 L121.17052,178.104173 C121.523901,177.750791 123.290807,177.39741 123.644189,176.690647 C123.644189,176.690647 123.644189,176.690647 123.644189,176.690647 C123.99757,175.983885 124.704333,176.337266 124.704333,175.630504 C125.057714,174.216978 127.178002,172.803453 128.238145,171.389928 C128.591527,171.743309 129.298289,170.683165 129.651671,169.976403 C129.651671,170.329784 129.651671,170.329784 129.651671,170.329784 C129.651671,169.26964 131.418577,168.916259 131.418577,167.502734 C131.771958,167.149353 131.771958,165.735827 132.478721,165.735827 C132.478721,164.322302 132.832102,163.262158 133.538865,161.495252 C133.892246,159.374964 134.95239,157.961439 135.305771,157.254676 Z M51.2010232,163.262158 C51.2010232,163.61554 51.2010232,163.968921 51.2010232,164.322302 C51.2010232,163.968921 51.2010232,163.61554 51.2010232,163.262158 Z M224.357858,147.713381 C224.357858,147.713381 224.004476,148.420144 224.004476,149.833669 L224.357858,147.713381 Z M9.50203038,153.367482 C9.50203038,153.367482 9.50203038,153.720863 9.50203038,153.720863 C9.50203038,153.367482 9.50203038,153.367482 9.50203038,153.367482 Z M233.545771,71.0296403 C233.545771,71.0296403 233.545771,71.0296403 233.545771,71.0296403 C233.545771,71.3830216 233.545771,71.3830216 233.545771,71.7364029 L233.545771,71.0296403 Z M121.877282,11.6615827 C121.877282,11.6615827 121.877282,11.6615827 121.877282,11.6615827 L121.17052,12.014964 L121.877282,11.6615827 Z M104.561599,51.9470504 C104.208217,51.5936691 105.268361,51.5936691 105.268361,51.9470504 L104.561599,51.9470504 C104.91498,52.3004317 105.268361,52.3004317 105.268361,52.6538129 C104.91498,52.6538129 104.91498,52.6538129 104.91498,53.0071942 L104.561599,53.0071942 L105.621743,53.3605755 C105.621743,54.0673381 106.681886,54.7741007 106.328505,55.127482 C106.328505,55.127482 107.035268,56.5410072 107.74203,56.1876259 C107.388649,56.1876259 107.74203,56.8943885 107.388649,56.8943885 C108.095412,56.8943885 108.802174,57.6011511 108.802174,57.9545324 C109.862318,59.3680576 111.275843,59.3680576 112.335987,60.4282014 C112.335987,60.0748201 113.04275,60.4282014 113.04275,60.0748201 C114.456275,60.0748201 115.163038,62.1951079 116.223181,60.7815827 C116.929944,60.7815827 116.929944,61.4883453 117.283325,61.4883453 C118.696851,61.4883453 119.050232,61.4883453 119.756994,61.8417266 C120.110376,61.8417266 120.463757,61.134964 121.17052,61.134964 C120.817138,61.4883453 121.17052,61.4883453 121.523901,61.4883453 C121.17052,61.4883453 121.17052,61.4883453 121.523901,61.8417266 C121.523901,61.8417266 121.523901,61.8417266 121.877282,61.4883453 C121.877282,61.4883453 121.877282,61.4883453 121.877282,61.4883453 C122.230663,61.4883453 122.230663,61.134964 121.877282,61.134964 C121.877282,61.134964 121.877282,61.134964 121.877282,60.7815827 C122.584045,61.134964 123.290807,60.4282014 123.290807,61.134964 C124.704333,60.7815827 125.764476,59.7214388 126.471239,59.0146763 C126.82462,59.3680576 126.471239,59.3680576 126.117858,59.7214388 L126.82462,59.3680576 C126.82462,59.7214388 126.471239,59.7214388 126.117858,60.0748201 C127.531383,60.0748201 127.884764,58.661295 128.944908,58.3079137 L128.944908,57.9545324 C128.944908,57.9545324 128.944908,57.6011511 128.944908,57.2477698 C129.298289,57.2477698 129.298289,57.9545324 130.005052,57.2477698 C130.711815,57.2477698 131.065196,56.1876259 131.065196,55.4808633 C130.711815,55.8342446 130.711815,55.4808633 130.711815,55.4808633 C131.065196,55.127482 131.418577,55.4808633 131.418577,55.127482 L131.771958,55.4808633 C131.418577,55.4808633 131.771958,54.4207194 131.771958,54.4207194 C132.12534,54.4207194 131.771958,55.127482 131.771958,55.127482 C132.478721,54.0673381 132.12534,54.7741007 132.832102,53.7139568 C132.832102,53.0071942 132.478721,53.7139568 132.12534,53.0071942 C132.478721,52.6538129 132.12534,51.9470504 132.832102,51.5936691 L132.478721,51.5936691 C132.478721,50.5335252 132.832102,50.1801439 133.185484,49.4733813 C133.185484,48.7666187 132.832102,48.0598561 132.832102,47.7064748 C132.832102,46.9997122 133.185484,46.6463309 133.185484,45.9395683 C133.185484,45.9395683 133.185484,45.5861871 133.185484,45.5861871 C133.892246,45.2328058 134.599009,44.1726619 134.95239,42.0523741 C134.95239,40.2854676 134.245627,39.2253237 133.185484,38.5185612 C133.892246,37.8117986 132.478721,37.4584173 132.478721,36.7516547 C131.418577,36.3982734 131.771958,34.6313669 130.358433,34.6313669 C130.358433,34.6313669 130.711815,34.6313669 130.711815,34.6313669 C130.005052,34.2779856 129.298289,33.571223 129.651671,33.2178417 C128.238145,32.1576978 126.117858,30.7441727 124.704333,31.097554 C123.99757,31.4509353 123.99757,30.7441727 123.290807,31.097554 C123.290807,31.097554 123.290807,31.097554 123.290807,31.097554 C122.584045,31.4509353 121.523901,30.7441727 120.817138,31.097554 L120.817138,30.7441727 L119.403613,30.7441727 L119.756994,30.7441727 C119.403613,31.4509353 118.696851,30.0374101 117.990088,30.7441727 C116.929944,30.7441727 116.576563,32.8644604 115.516419,32.5110791 C115.163038,32.8644604 115.8698,31.8043165 115.163038,32.1576978 C115.163038,31.8043165 115.516419,31.8043165 115.163038,31.4509353 C114.456275,31.8043165 114.102894,31.4509353 113.396131,31.8043165 L113.396131,31.4509353 C112.689369,32.5110791 111.275843,31.8043165 111.275843,32.8644604 C110.569081,33.571223 110.215699,32.5110791 109.508937,33.571223 L108.802174,33.571223 C108.448793,33.9246043 108.802174,34.2779856 108.448793,34.2779856 C108.095412,33.9246043 107.74203,34.6313669 107.74203,34.2779856 C106.328505,34.9847482 106.681886,36.3982734 104.91498,37.4584173 C105.268361,38.1651799 104.561599,38.5185612 104.91498,39.2253237 C104.561599,39.2253237 104.208217,40.6388489 104.208217,39.578705 C104.208217,39.578705 104.208217,39.2253237 104.208217,39.578705 L103.854836,39.2253237 C102.794692,39.9320863 103.501455,40.9922302 103.148074,41.6989928 C103.501455,41.3456115 103.501455,40.9922302 103.501455,41.3456115 L103.148074,42.0523741 L102.794692,41.6989928 C102.794692,42.0523741 102.441311,42.4057554 102.441311,43.112518 L102.794692,43.112518 C102.441311,43.8192806 101.734548,43.8192806 102.441311,44.5260432 C102.794692,44.8794245 102.794692,43.8192806 103.148074,44.5260432 C102.794692,45.2328058 102.441311,46.6463309 102.441311,47.7064748 C102.794692,47.7064748 102.794692,47.7064748 103.148074,48.0598561 L102.794692,48.0598561 C103.501455,49.12 102.08793,48.7666187 102.794692,49.8267626 L103.148074,49.8267626 C104.561599,51.2402878 103.148074,50.8869065 104.561599,51.9470504 Z M86.5391527,258.321727 L87.9526779,258.675108 C87.9526779,258.321727 87.5992966,258.321727 86.5391527,258.321727 Z M151.20793,304.968058 C150.854548,304.968058 150.854548,304.968058 151.20793,304.968058 Z M139.546347,268.216403 L139.192966,268.216403 L139.546347,268.216403 Z M280.545484,277.404317 L281.252246,276.344173 C280.898865,278.817842 280.545484,280.938129 279.838721,283.411799 L279.48534,282.351655 C279.131958,283.76518 278.778577,285.532086 278.071815,286.945612 C278.071815,288.359137 278.778577,286.238849 279.131958,284.825324 C278.778577,286.238849 278.425196,287.298993 278.071815,288.712518 C277.718433,290.126043 277.365052,291.186187 277.011671,292.599712 C276.658289,294.013237 275.951527,295.073381 275.244764,296.486906 C274.538002,297.54705 273.477858,298.960576 272.417714,300.020719 C272.417714,299.667338 272.417714,299.313957 272.417714,298.960576 C272.417714,298.960576 273.124476,298.253813 273.477858,297.900432 C274.891383,295.073381 274.18462,296.133525 272.771095,297.54705 C271.710951,298.960576 269.590663,300.727482 269.237282,300.727482 C268.883901,301.787626 267.470376,302.84777 265.703469,303.907914 C263.936563,304.968058 262.169656,305.321439 260.40275,306.381583 C260.049369,306.381583 259.342606,306.381583 258.989225,306.381583 L258.282462,306.381583 C257.929081,306.381583 257.222318,306.381583 256.868937,306.381583 C255.808793,306.381583 254.748649,306.381583 254.041886,306.381583 C252.27498,306.381583 250.154692,306.381583 248.387786,306.734964 C244.853973,307.088345 241.673541,307.088345 238.139728,306.734964 C239.906635,306.381583 236.01944,306.381583 236.01944,305.67482 C233.19239,305.321439 233.899153,306.381583 231.425484,306.381583 L229.658577,305.321439 C223.651095,306.381583 225.418002,304.261295 219.763901,304.614676 C215.876707,305.67482 210.929369,303.907914 205.275268,304.968058 L205.275268,304.261295 C201.034692,304.968058 198.561023,303.554532 195.380592,303.907914 C194.320448,303.201151 196.087354,303.554532 196.087354,302.84777 C192.553541,303.554532 197.147498,301.434245 194.673829,302.141007 C189.726491,301.434245 184.779153,304.614676 179.831815,304.614676 C174.531095,305.67482 170.29052,303.201151 169.230376,304.614676 L172.057426,304.614676 L164.9898,304.614676 L164.636419,303.907914 C161.809369,304.261295 155.095124,303.554532 151.20793,304.261295 C151.20793,304.261295 150.854548,304.261295 150.854548,303.907914 C147.320735,304.261295 146.260592,303.554532 143.08016,304.614676 L143.433541,304.261295 C137.77944,305.67482 125.057714,305.321439 116.223181,305.321439 C115.8698,304.614676 110.922462,304.968058 107.035268,304.968058 C108.095412,304.968058 108.448793,304.614676 108.448793,304.614676 C103.148074,305.67482 97.4939728,303.554532 92.1932534,304.614676 L92.5466347,304.614676 C90.4263469,304.261295 84.4188649,305.321439 83.358721,303.907914 C77.351239,304.968058 71.6971383,304.968058 63.2159872,304.261295 L63.5693685,303.907914 C57.9152678,303.201151 53.6746922,302.494388 50.4942606,301.787626 C49.0807354,302.494388 47.6672102,303.201151 46.2536851,303.907914 C44.1333973,305.321439 42.7198721,305.321439 41.6597282,305.321439 C40.9529656,305.321439 40.246203,304.968058 40.246203,304.614676 C40.246203,304.614676 40.246203,304.261295 40.5995843,304.261295 C39.8928217,304.261295 39.1860592,304.261295 38.1259153,304.261295 C35.6522462,304.261295 33.1785771,303.201151 30.7049081,301.787626 C25.7575699,298.607194 22.9305196,293.659856 20.1034692,288.712518 C17.6298002,283.76518 15.8628937,278.46446 14.4493685,273.870504 C13.0358433,269.276547 11.9756994,265.035971 11.2689369,262.208921 C10.5621743,259.381871 10.208793,257.261583 10.208793,257.261583 C8.79526779,249.133813 7.7351239,241.359424 6.67498002,233.231655 C6.67498002,233.231655 5.96821743,231.111367 5.96821743,230.404604 C1.0208793,204.254388 3.84792966,174.216978 1.72764189,148.773525 C0.314116707,130.751079 -0.746027178,98.9467626 0.667498002,82.3378417 C1.0208793,68.5559712 -0.0392645883,57.2477698 1.0208793,43.8192806 L1.72764189,40.2854676 C1.37426059,37.8117986 1.37426059,37.8117986 1.37426059,34.2779856 C1.72764189,36.0448921 1.72764189,33.9246043 2.08102318,32.8644604 L1.72764189,29.3306475 C2.78778577,28.2705036 0.314116707,20.1427338 1.37426059,19.4359712 L2.08102318,18.022446 C2.08102318,15.9021583 2.43440448,14.1352518 2.43440448,12.014964 C2.78778577,8.83453237 2.78778577,5.65410072 3.14116707,2.47366906 L3.14116707,1.41352518 C3.14116707,1.06014388 3.49454836,1.41352518 3.49454836,1.41352518 L4.20131095,1.41352518 L6.67498002,1.41352518 L11.6223181,1.41352518 C13.7426059,1.41352518 16.216275,1.41352518 18.689944,1.41352518 C26.8177138,1.41352518 35.2988649,1.41352518 44.1333973,1.06014388 C61.0956994,0.70676259 78.4113829,0.353381295 95.3736851,0.353381295 C103.501455,1.06014388 108.448793,2.47366906 116.576563,2.82705036 L116.576563,1.76690647 C122.230663,1.41352518 117.990088,2.47366906 123.99757,2.82705036 L121.877282,1.76690647 L133.185484,1.41352518 L131.418577,1.76690647 C135.305771,1.76690647 139.899728,1.41352518 139.899728,0.70676259 C140.606491,1.41352518 139.546347,1.76690647 144.847066,1.76690647 C144.847066,0.353381295 152.268074,0.353381295 159.335699,0 C159.335699,0 161.809369,0.353381295 160.042462,0.70676259 C175.237858,-1.06014388 183.719009,2.12028777 198.207642,0.353381295 C203.861743,0.70676259 208.102318,0.70676259 212.342894,0.70676259 C214.463181,0.70676259 216.583469,0.70676259 219.057138,0.70676259 C220.117282,0.70676259 221.530807,0.70676259 222.944333,0.70676259 C225.418002,0.70676259 227.891671,0.70676259 230.36534,1.06014388 C230.36534,0.70676259 230.011958,0.70676259 230.011958,0.353381295 C231.778865,0.353381295 233.545771,0.353381295 235.666059,0.353381295 C235.666059,2.47366906 235.312678,4.94733813 235.312678,7.42100719 C235.312678,9.54129496 234.959297,12.014964 234.959297,14.1352518 C234.959297,16.9623022 234.959297,19.7893525 234.959297,22.2630216 L234.605915,21.556259 L234.605915,26.1502158 C234.605915,27.9171223 234.252534,32.1576978 234.605915,36.0448921 C234.252534,38.5185612 234.252534,41.6989928 234.605915,44.1726619 L233.899153,46.9997122 C234.605915,54.4207194 233.19239,65.3755396 234.252534,71.7364029 C234.252534,84.8115108 234.252534,98.9467626 234.252534,112.375252 C234.959297,140.292374 233.899153,147.713381 234.605915,174.57036 C235.666059,189.765755 237.079584,200.720576 238.139728,211.322014 C238.846491,216.622734 239.553253,221.570072 239.906635,226.870791 C240.613397,232.171511 241.32016,237.825612 241.673541,244.186475 C241.673541,244.186475 241.673541,244.893237 242.026922,246.306763 C242.026922,247.720288 242.380304,249.133813 242.733685,251.254101 C243.087066,253.72777 243.440448,256.55482 243.440448,259.028489 C243.793829,259.028489 244.500592,259.028489 245.207354,258.675108 L243.440448,258.321727 C246.267498,258.675108 247.681023,257.261583 245.207354,257.261583 C251.214836,255.494676 248.741167,257.968345 254.041886,256.908201 L255.10203,256.201439 C261.109512,255.494676 257.222318,257.614964 263.2298,256.908201 L263.583181,257.614964 C264.996707,257.614964 266.763613,257.614964 266.056851,256.908201 C267.823757,256.908201 269.237282,256.908201 271.004189,257.261583 C273.831239,257.261583 276.304908,257.614964 278.425196,257.614964 C281.605627,256.908201 280.545484,260.442014 280.898865,262.562302 C280.898865,264.68259 280.898865,266.802878 280.545484,268.569784 C280.545484,269.276547 280.545484,269.629928 280.545484,269.983309 C280.545484,270.336691 280.545484,270.336691 280.545484,270.336691 C280.545484,270.336691 280.545484,270.336691 280.898865,269.983309 C281.252246,269.276547 281.252246,267.863022 281.605627,269.276547 C282.31239,273.163741 281.252246,274.223885 280.545484,277.404317 Z M44.1333973,301.434245 C38.1259153,299.667338 41.3063469,298.607194 47.6672102,297.900432 C47.6672102,297.900432 47.6672102,297.900432 48.0205915,297.54705 C50.1408793,294.72 51.9077858,290.832806 52.6145484,285.532086 C54.3814548,281.998273 55.0882174,278.46446 55.0882174,272.456978 L54.3814548,273.517122 C54.7348361,271.750216 54.7348361,269.983309 54.7348361,268.569784 C54.7348361,266.802878 54.3814548,264.68259 54.3814548,262.208921 C54.0280735,260.795396 53.6746922,261.502158 53.6746922,261.85554 C53.321311,262.208921 53.321311,262.562302 52.9679297,259.381871 C52.9679297,258.675108 52.9679297,258.321727 52.9679297,258.321727 C56.8551239,257.968345 58.2686491,258.321727 59.328793,258.321727 C60.3889369,258.321727 61.802462,258.321727 65.6896563,258.321727 C65.336275,258.675108 64.6295124,258.675108 63.5693685,258.675108 C62.5092246,258.675108 61.4490807,259.028489 62.1558433,259.028489 C62.8626059,259.028489 64.2761311,258.675108 65.336275,258.675108 C66.7498002,258.675108 67.809944,258.321727 67.4565627,257.968345 L67.4565627,258.675108 C68.8700879,258.321727 69.5768505,259.028489 71.343757,259.028489 C72.0505196,258.675108 72.7572822,258.675108 70.9903757,258.321727 C74.5241886,257.968345 79.4715268,257.261583 81.9451958,257.614964 C85.1256275,257.614964 84.4188649,258.321727 85.1256275,259.028489 C86.1857714,259.028489 87.5992966,258.675108 87.5992966,258.321727 L87.9526779,258.321727 L89.366203,257.968345 C96.0804476,259.028489 102.08793,256.908201 108.095412,257.968345 C106.681886,257.968345 103.854836,257.968345 103.854836,258.321727 L108.802174,258.321727 C106.681886,258.321727 105.268361,259.028489 105.975124,259.381871 C112.689369,259.028489 118.696851,257.968345 126.82462,257.968345 C127.178002,259.028489 132.12534,258.321727 134.95239,258.675108 C134.599009,258.675108 134.599009,258.321727 134.599009,258.321727 C133.185484,258.321727 132.832102,257.968345 135.659153,257.968345 C135.659153,257.968345 135.659153,257.968345 135.659153,257.968345 C136.012534,257.968345 136.719297,257.614964 136.719297,257.614964 C138.839584,257.968345 138.486203,258.321727 137.426059,258.321727 C139.192966,258.321727 140.959872,258.321727 139.546347,258.675108 C143.786922,259.028489 144.140304,257.614964 146.613973,257.261583 C151.561311,257.261583 153.328217,257.261583 160.042462,257.261583 L159.335699,257.261583 C161.102606,257.261583 161.809369,258.321727 165.343181,257.968345 C168.170232,255.141295 174.531095,257.968345 182.305484,256.908201 C181.24534,255.848058 185.132534,256.55482 184.779153,255.848058 C192.20016,256.55482 198.207642,255.141295 206.335412,255.848058 L205.98203,255.848058 C208.102318,256.55482 213.756419,255.848058 215.876707,255.494676 C214.816563,256.201439 218.703757,256.55482 217.290232,256.908201 C219.057138,255.848058 226.124764,256.55482 226.124764,256.55482 C227.538289,257.261583 232.839009,256.55482 236.372822,257.261583 L238.49311,256.55482 C236.726203,251.960863 233.899153,243.479712 231.425484,230.404604 C231.425484,224.397122 231.072102,219.096403 229.658577,210.261871 L229.305196,212.382158 C229.305196,207.081439 228.598433,202.487482 227.891671,197.540144 C227.184908,195.066475 227.184908,201.427338 226.478145,196.126619 C225.771383,186.231942 226.124764,191.179281 225.418002,180.931223 C225.771383,181.637986 226.124764,186.938705 226.478145,185.52518 C226.124764,184.465036 225.771383,177.044029 225.06462,178.104173 L225.771383,177.750791 C225.418002,175.983885 225.771383,174.216978 225.771383,171.743309 C225.418002,170.683165 225.06462,169.623022 225.06462,172.450072 C224.357858,167.149353 223.297714,160.081727 224.004476,156.194532 C223.651095,151.247194 224.711239,152.660719 225.06462,151.247194 C225.06462,149.833669 224.357858,147.36 224.357858,147.36 L224.357858,146.653237 L223.651095,144.53295 C224.357858,134.284892 222.23757,125.45036 223.297714,116.615827 C223.297714,118.736115 223.297714,122.976691 224.004476,122.976691 L223.651095,115.909065 C224.004476,118.736115 224.357858,121.209784 224.711239,120.14964 C224.357858,109.901583 223.297714,101.06705 223.297714,89.0520863 C224.357858,88.698705 223.651095,80.9243165 224.357858,76.683741 C224.357858,77.3905036 224.004476,77.3905036 224.004476,77.3905036 C224.004476,79.1574101 223.651095,79.8641727 223.651095,75.9769784 C223.651095,75.9769784 223.651095,75.9769784 223.651095,75.9769784 C223.651095,75.2702158 223.651095,74.5634532 223.297714,74.2100719 C223.651095,71.0296403 224.004476,71.3830216 224.004476,73.1499281 C224.004476,70.676259 224.004476,68.2025899 224.357858,70.3228777 C224.711239,63.9620144 223.651095,63.2552518 223.297714,59.7214388 C223.651095,52.3004317 223.651095,49.4733813 223.651095,39.578705 L223.651095,40.9922302 C224.004476,38.1651799 224.711239,37.4584173 224.711239,32.1576978 C223.297714,30.0374101 223.651095,26.5035971 224.004476,22.2630216 C224.357858,20.1427338 224.357858,17.6690647 224.711239,15.1953957 C224.711239,14.4886331 224.711239,14.1352518 224.711239,13.4284892 L224.711239,12.3683453 C224.711239,11.6615827 224.711239,10.9548201 224.711239,10.6014388 C224.357858,10.9548201 224.004476,10.9548201 224.004476,10.9548201 C223.651095,10.9548201 223.297714,11.3082014 222.944333,11.6615827 C222.944333,11.6615827 222.590951,11.6615827 222.23757,11.3082014 C221.530807,11.3082014 221.177426,11.3082014 220.470663,11.3082014 L218.350376,11.3082014 C215.876707,11.3082014 213.403038,11.3082014 210.575987,11.6615827 C205.275268,12.014964 199.974548,12.014964 193.967066,11.6615827 L194.673829,11.6615827 C191.493397,10.9548201 183.012246,11.6615827 180.185196,12.014964 C181.952102,11.3082014 175.94462,10.9548201 178.064908,10.6014388 C175.591239,11.6615827 164.636419,10.9548201 164.636419,10.9548201 C162.516131,10.2480576 154.388361,10.9548201 149.441023,10.2480576 L142.726779,11.3082014 L145.200448,10.6014388 C141.666635,10.6014388 140.959872,10.2480576 142.373397,9.89467626 C140.959872,9.89467626 139.899728,9.89467626 137.77944,10.2480576 L138.839584,9.54129496 C134.599009,9.18791367 132.832102,10.6014388 136.365915,10.6014388 C127.531383,12.3683453 131.065196,9.89467626 123.290807,10.9548201 L121.877282,11.6615827 C113.04275,12.3683453 118.696851,10.2480576 109.862318,10.9548201 L109.508937,10.2480576 C107.035268,10.2480576 104.91498,10.2480576 105.621743,10.9548201 C97.1405915,10.6014388 87.5992966,10.2480576 80.885052,9.54129496 C75.5843325,9.89467626 83.0053397,10.2480576 80.5316707,10.6014388 C74.8775699,11.6615827 73.4640448,10.2480576 68.5167066,10.2480576 L69.9302318,10.9548201 L60.0355556,10.6014388 L61.4490807,10.2480576 L54.7348361,10.2480576 C52.9679297,10.6014388 55.79498,10.6014388 57.9152678,10.9548201 C50.8476419,10.9548201 44.8401599,12.7217266 37.4191527,11.3082014 L38.1259153,10.6014388 C38.1259153,10.6014388 39.1860592,10.9548201 39.8928217,10.6014388 C46.9604476,9.54129496 34.5921023,9.89467626 34.238721,9.54129496 C32.1184333,10.2480576 25.7575699,9.54129496 22.9305196,10.6014388 C19.7500879,10.2480576 16.5696563,10.2480576 14.0959872,10.2480576 C13.7426059,10.2480576 13.3892246,10.2480576 13.0358433,10.2480576 C13.0358433,10.2480576 12.682462,10.2480576 12.682462,10.2480576 L12.682462,10.9548201 L12.682462,12.014964 C12.682462,12.014964 12.682462,12.014964 12.682462,12.014964 L12.682462,12.3683453 L12.682462,13.4284892 L12.682462,15.1953957 C12.682462,17.6690647 12.3290807,20.1427338 12.3290807,22.6164029 C11.9756994,20.1427338 11.9756994,25.7968345 11.2689369,25.4434532 C10.5621743,29.6840288 11.9756994,28.6238849 11.6223181,32.5110791 L10.5621743,36.0448921 C11.6223181,45.2328058 9.14864908,42.0523741 9.50203038,50.8869065 C10.5621743,56.5410072 8.44188649,63.9620144 9.14864908,72.4431655 L8.44188649,72.7965468 C8.79526779,79.1574101 7.7351239,82.691223 8.0885052,87.6385612 C7.38174261,89.0520863 7.7351239,86.225036 7.02836131,86.5784173 C7.38174261,91.8791367 5.61483613,85.1648921 6.32159872,88.698705 C5.61483613,96.1197122 8.79526779,103.540719 8.79526779,110.608345 C9.85541167,118.382734 7.38174261,124.743597 8.79526779,126.157122 L8.79526779,122.269928 L9.14864908,132.871367 L8.44188649,133.224748 C8.79526779,137.465324 8.44188649,147.713381 9.50203038,153.014101 C9.50203038,153.014101 9.50203038,153.367482 9.14864908,153.720863 C9.85541167,159.021583 9.14864908,160.435108 10.208793,165.382446 L10.208793,165.029065 C11.9756994,173.510216 12.3290807,192.239424 13.7426059,205.314532 C13.0358433,205.667914 13.7426059,213.442302 14.4493685,218.743022 C14.0959872,216.976115 13.7426059,216.976115 13.7426059,216.622734 C15.5095124,224.043741 14.4493685,232.524892 16.5696563,240.299281 L16.5696563,239.945899 C16.5696563,243.126331 19.3967066,251.960863 18.3365627,253.374388 C19.7500879,257.614964 20.8102318,261.85554 22.223757,266.096115 C23.2839009,270.690072 24.6974261,275.63741 26.8177138,281.644892 L26.4643325,281.291511 C29.2913829,291.539568 33.5319584,297.900432 38.1259153,299.667338 C40.246203,300.727482 42.7198721,300.727482 43.780016,301.080863 C43.4266347,301.434245 43.780016,301.434245 44.1333973,301.434245 C44.1333973,301.434245 44.1333973,301.434245 44.1333973,301.434245 Z M271.004189,268.569784 L271.004189,267.50964 C271.004189,267.50964 271.004189,267.156259 271.004189,267.156259 L270.650807,267.156259 L269.944045,267.156259 C269.590663,266.802878 269.590663,266.802878 268.883901,266.449496 C267.823757,266.096115 266.763613,266.096115 265.703469,265.742734 C263.583181,265.389353 261.462894,264.68259 258.635843,264.68259 L258.635843,265.742734 C254.748649,266.096115 257.929081,265.035971 253.688505,264.68259 L255.10203,265.742734 L247.327642,266.096115 L248.387786,265.742734 C245.560735,265.742734 242.733685,266.096115 242.733685,266.802878 C242.380304,266.096115 243.087066,265.742734 239.553253,265.742734 C239.553253,267.156259 234.605915,267.156259 230.011958,267.50964 C230.011958,267.50964 228.245052,267.156259 229.658577,266.802878 C219.41052,268.569784 213.756419,265.389353 203.861743,267.156259 C196.087354,266.096115 192.906922,267.50964 184.425771,266.802878 L184.779153,267.50964 C180.891958,267.156259 176.298002,267.156259 171.704045,267.863022 L172.410807,267.50964 L169.230376,267.50964 C167.816851,267.863022 164.9898,267.50964 162.516131,267.863022 C160.749225,267.50964 158.982318,267.863022 157.215412,267.863022 L155.448505,267.156259 C150.501167,267.863022 143.08016,267.156259 138.839584,267.863022 C130.005052,267.863022 120.463757,268.216403 111.629225,268.216403 C92.900016,268.569784 87.9526779,267.50964 69.9302318,267.156259 C68.5167066,267.156259 67.4565627,267.156259 66.0430376,267.156259 C65.336275,267.156259 64.9828937,267.156259 64.2761311,267.156259 C63.9227498,267.156259 62.8626059,267.156259 62.8626059,267.156259 C62.5092246,267.156259 62.1558433,267.50964 62.1558433,267.50964 C62.1558433,267.863022 62.5092246,267.863022 62.5092246,268.216403 L62.5092246,268.569784 C62.5092246,269.276547 62.5092246,269.983309 62.5092246,270.690072 C62.5092246,273.517122 62.5092246,276.344173 62.1558433,279.171223 C61.802462,281.998273 61.0956994,284.825324 60.3889369,288.005755 C60.0355556,289.419281 59.328793,291.186187 58.6220304,292.599712 C57.9152678,294.013237 57.2085052,295.426763 55.79498,296.840288 C67.4565627,296.133525 81.5918145,296.133525 81.5918145,296.133525 L97.4939728,296.133525 C97.4939728,296.133525 98.907498,295.780144 99.6142606,295.780144 C116.929944,294.013237 137.072678,298.253813 154.03498,296.486906 C166.049944,295.780144 187.252822,294.366619 198.561023,295.780144 C207.748937,296.133525 215.523325,294.72 224.357858,295.426763 L226.831527,296.133525 C228.598433,295.780144 228.598433,295.780144 230.718721,295.780144 C229.658577,296.133525 231.072102,296.133525 231.778865,296.486906 L234.252534,296.133525 C234.959297,297.193669 240.260016,294.366619 240.966779,295.426763 L242.026922,296.133525 C247.327642,296.486906 252.628361,296.840288 258.282462,296.840288 C262.169656,297.193669 265.703469,294.366619 267.823757,290.126043 C269.944045,285.885468 271.004189,280.584748 271.35757,275.284029 C271.35757,273.870504 271.710951,272.456978 271.710951,271.396835 C271.710951,270.690072 271.710951,269.983309 271.710951,269.276547 L271.004189,268.569784 Z M255.10203,255.848058 C255.10203,255.848058 255.10203,255.848058 255.10203,255.848058 L255.455412,255.494676 L255.10203,255.848058 Z" id="Shape"></path>
        </g>
    </g>
</svg>