<?xml version="1.0" encoding="UTF-8"?>
<svg width="329px" height="327px" viewBox="0 0 329 327" version="1.1" xmlns="http://www.w3.org/2000/svg" xmlns:xlink="http://www.w3.org/1999/xlink">
    <!-- Generator: Sketch 49.1 (51147) - http://www.bohemiancoding.com/sketch -->
    <title>Group 7</title>
    <desc>Created with Sketch.</desc>
    <defs></defs>
    <g id="Page-1" stroke="none" stroke-width="1" fill="none" fill-rule="evenodd">
        <g id="Group-7" fill="#02263E" fill-rule="nonzero">
            <path d="M314.364988,278.603446 L314.364988,84.6190821 C314.364988,80.413204 310.958718,77 306.748845,77 L288.77634,77 C284.570086,77 281.160197,80.413204 281.160197,84.6190821 C281.160197,88.8249602 284.566466,92.2345447 288.77634,92.2345447 L299.132702,92.2345447 L299.132702,277.799913 L29.465496,277.799913 L29.465496,92.2345447 L40.4734288,92.2345447 C44.6796827,92.2345447 48.0895718,88.8285797 48.0895718,84.6190821 C48.0895718,80.4095845 44.6833025,77 40.4734288,77 L21.8529729,77 C17.646719,77 14.2368299,80.413204 14.2368299,84.6190821 L14.2368299,278.603446 C5.83156192,280.948892 0,288.191545 0,297.341682 L0,306.672796 C0,317.665267 8.55368145,327 19.5471349,327 L309.061922,327 C320.048136,327 329,318.056175 329,307.063703 L329,297.73259 C329,288.586072 322.781115,280.945273 314.364988,278.603446 Z M313.764094,307.063703 C313.764094,309.658897 311.650108,311.765455 309.061922,311.765455 L19.5471349,311.765455 C16.9517098,311.765455 14.8377234,309.658897 14.8377234,307.063703 L14.8377234,297.73259 C14.8377234,295.137397 16.9517098,293.023599 19.5471349,293.023599 L21.8529729,293.023599 L125.662739,293.023599 C125.840111,297.073838 129.126925,300.327783 133.220964,300.327783 L194.179067,300.327783 C198.280345,300.327783 201.55992,297.077458 201.737292,293.023599 L306.752465,293.023599 L309.065542,293.023599 C311.653728,293.023599 313.767714,295.137397 313.767714,297.73259 L313.767714,307.063703 L313.764094,307.063703 Z" id="Shape"></path>
            <path d="M37,109.615385 L37,259.391847 C37,263.593688 40.4071298,267 44.605523,267 L284.39809,267 C288.596483,267 292,263.597304 292,259.391847 L292,109.615385 C292,105.413544 288.600096,102.003616 284.39809,102.003616 L264.02396,102.003616 C259.825566,102.003616 256.418437,105.413544 256.418437,109.615385 C256.418437,113.817226 259.825566,117.223537 264.02396,117.223537 L276.788954,117.223537 L276.788954,251.787311 L52.207433,251.787311 L52.207433,117.219921 L68.7914476,117.219921 C72.9898409,117.219921 76.3933576,113.817226 76.3933576,109.611769 C76.3933576,105.406312 72.993454,102 68.7914476,102 L44.6091361,102 C40.4071298,102 37,105.413544 37,109.615385 Z" id="Shape"></path>
            <path d="M90,104.886296 C90,125.289263 98.6653961,144.934426 114.146029,159.07288 C114.597728,159.440956 115.219266,159.975028 115.768532,160.45497 C126.551494,170.302812 132.206767,183.030308 133.236641,188.739097 C133.87986,192.362121 137.041754,194.996391 140.716778,194.996391 L161.592506,194.996391 C165.791501,194.996391 169.195505,191.593491 169.195505,187.40031 C169.195505,183.207129 165.795114,179.807837 161.592506,179.807837 L146.494914,179.807837 C143.267975,170.526544 136.2829,158.607372 125.940796,149.178127 C125.10967,148.445583 124.282157,147.734691 124.04366,147.565087 C112.068213,136.6058 105.198772,121.056387 105.198772,104.889905 C105.198772,73.0946203 131.129916,47.2029887 162.972898,47.1813372 C194.852016,47.2029887 220.797614,73.0982289 220.797614,104.889905 C220.797614,121.031127 213.96431,136.537237 202.18761,147.312486 L199.907433,149.315253 C187.155063,160.924087 179.497859,176.49876 177.774175,186.065132 C177.040616,190.196967 179.794174,194.141156 183.920897,194.873699 C184.379823,194.956697 184.824295,195 185.275994,195 C188.88236,195 192.094844,192.419858 192.748905,188.742705 C193.851051,182.604494 199.976091,169.797609 210.047175,160.628182 L212.320125,158.625415 C227.367126,144.865862 236,125.289263 236,104.889905 C236,64.7226921 203.246393,32.0288687 162.972898,32 C122.742767,32.0252601 90,64.7190835 90,104.886296 Z" id="Shape"></path>
            <path d="M174.343639,205 L143.652724,205 C139.426267,205 136,208.360656 136,212.501782 C136,216.642908 139.42263,220 143.652724,220 L174.343639,220 C178.570096,220 182,216.646472 182,212.501782 C182,208.357092 178.570096,205 174.343639,205 Z" id="Shape"></path>
            <path d="M171,18.3580713 L171,7.64556254 C171,3.4230608 167.639344,0 163.498218,0 C159.357092,0 156,3.41942697 156,7.64556254 L156,18.3544375 C156,22.5769392 159.353528,26 163.498218,26 C167.642908,26 171,22.580573 171,18.3580713 Z" id="Shape"></path>
            <path d="M199.09487,12.5197774 L194.674575,22.2764033 C192.924952,26.1261782 194.696769,30.631465 198.625098,32.3408664 C199.649719,32.7863248 200.718728,33 201.784037,33 C204.769124,33 207.613648,31.3087066 208.900897,28.4657403 L213.32859,18.7199792 C215.070815,14.8702044 213.306396,10.3649176 209.378067,8.66275937 C205.446039,6.94611471 200.844493,8.68086743 199.09487,12.5197774 Z" id="Shape"></path>
            <path d="M227.953013,52.5345695 C229.441877,54.167517 231.498955,55 233.574014,55 C235.379352,55 237.191882,54.3596284 238.637591,53.0682124 L246.506273,46.0419133 C249.602679,43.2776427 249.850823,38.5388931 247.052909,35.4722248 C244.251399,32.4019989 239.468334,32.1565232 236.361139,34.9314666 L228.492457,41.9577658 C225.392455,44.7291516 225.151503,49.460786 227.953013,52.5345695 Z" id="Shape"></path>
            <path d="M246.373112,84.6256393 C247.410718,87.9155344 250.348817,90 253.504422,90 C254.278169,90 255.066178,89.8850206 255.83636,89.6216806 L265.823758,86.2242242 C269.760241,84.8852703 271.910331,80.4715441 270.630261,76.3805021 C269.335928,72.2857511 265.114193,70.0492159 261.159882,71.3881698 L251.179615,74.7782082 C247.236001,76.1208711 245.085911,80.5308883 246.373112,84.6256393 Z" id="Shape"></path>
            <path d="M66.7458727,73.34333 C62.804284,72.1141799 58.5956499,74.2899168 57.3494385,78.1998856 C56.1032271,82.1098543 58.2965592,86.2847261 62.2381479,87.5209402 L72.2470061,90.6609241 C72.9982935,90.8869747 73.7567022,91 74.5079897,91 C77.6876091,91 80.6429105,88.9726088 81.6505615,85.8043686 C82.8967729,81.8873357 80.7034408,77.712464 76.7618521,76.4762498 L66.7458727,73.34333 Z" id="Shape"></path>
            <path d="M90.5342375,36.8814683 C87.4193048,34.1394927 82.6519163,34.4251152 79.8918492,37.5384 C77.1317822,40.6516847 77.4257114,45.4037283 80.5513977,48.1528445 L88.462395,55.1113215 C89.8961961,56.3752009 91.6812784,57 93.4556072,57 C95.5417877,57 97.6207992,56.1359921 99.1047833,54.4615304 C101.868435,51.3518159 101.574506,46.5962021 98.4524038,43.8470859 L90.5342375,36.8814683 Z" id="Shape"></path>
            <path d="M125.261697,34 C126.340098,34 127.433221,33.7785827 128.474816,33.3139694 C132.365155,31.5644099 134.07293,27.0271704 132.298906,23.1977403 L127.790234,13.469899 C126.016209,9.62594974 121.408163,7.94172647 117.525184,9.69128599 C113.634845,11.4553647 111.92707,15.978085 113.701094,19.8147746 L118.209766,29.542616 C119.509,32.3484448 122.320939,34 125.261697,34 Z" id="Shape"></path>
            <path d="M155.107866,146.045967 C156.267281,146.696444 157.527515,147 158.766144,147 C161.430638,147 164.019518,145.579792 165.405775,143.068227 L186.059204,105.553769 C187.423857,103.063887 187.297833,100.0211 185.720741,97.6468587 C184.143649,95.2834587 181.374735,94.0041871 178.577017,94.3221981 L159.356654,96.490455 L174.321028,74.9488225 C176.70467,71.5121353 175.869315,66.7600389 172.430677,64.3677287 C168.999241,61.9681911 164.278766,62.8065837 161.887923,66.2504985 L137.363777,101.582245 C135.660661,104.039603 135.541839,107.255851 137.068522,109.818008 C138.588004,112.380164 141.443333,113.8076 144.431887,113.482362 L165.697429,111.082824 L152.137315,135.706995 C150.11374,139.400259 151.442387,144.02226 155.107866,146.045967 Z" id="Shape"></path>
        </g>
    </g>
</svg>