<?xml version="1.0" encoding="UTF-8"?>
<svg width="836px" height="621px" viewBox="0 0 836 621" version="1.1" xmlns="http://www.w3.org/2000/svg" xmlns:xlink="http://www.w3.org/1999/xlink">
    <!-- Generator: Sketch 49.1 (51147) - http://www.bohemiancoding.com/sketch -->
    <title>Group 6</title>
    <desc>Created with Sketch.</desc>
    <defs></defs>
    <g id="Page-1" stroke="none" stroke-width="1" fill="none" fill-rule="evenodd">
        <g id="Group-6" fill="#02263E" fill-rule="nonzero">
            <path d="M522.73,4.75 C527.09,3.2 531.16,0.35 535.99,0.68 C584.33,0.71 632.67,0.65 681.02,0.71 C689.54,0.73 698.52,6.98 698.71,16.07 C698.92,31.72 698.72,47.37 698.82,63.02 C698.99,66.15 697.95,69.14 696.77,72 C735.19,71.9 773.62,72.01 812.04,71.94 C815.42,71.91 818.99,72.17 821.89,74.12 C825.78,76.77 830.54,78.72 832.97,83.01 C836.02,87.77 835,93.65 835.16,99 C835.19,268.31 835.08,437.64 835.21,606.94 C834.63,613.68 829.01,619.56 822.32,620.48 C818.54,620.9 814.73,620.61 810.94,620.68 C548.64,620.68 286.34,620.67 24.04,620.69 C20.07,620.58 15.96,621.1 12.12,619.84 C6.27,617.91 1.85,612.18 1.79,605.96 C0.14,593.71 1.09,581.33 0.84,569.01 C0.84,410.33 0.85,251.64 0.84,92.96 C0.48,87.25 3.02,81.22 8.1,78.29 C12.46,75.97 16.8,72.84 21.98,73.03 C185.65,73.01 349.32,73.04 513,73.01 C513.02,55 512.97,36.99 513.01,18.98 C512.92,12.83 516.93,6.86 522.73,4.75 Z M543.92,31.6 C543.92,45.41 543.91,59.21 543.92,73.01 C550.62,73.02 557.32,72.97 564.02,73.03 C567.67,72.96 571.52,73.31 574.63,75.42 C581.22,79.35 583.79,88.5 580.28,95.32 C577.59,101.04 571.22,104.43 564.98,103.93 C387.24,103.99 209.5,103.93 31.76,103.96 C31.76,265.9 31.73,427.83 31.77,589.77 C289.26,589.75 546.75,589.76 804.24,589.76 C804.25,427.47 804.25,265.17 804.24,102.88 C740.8,102.87 677.37,102.88 613.94,102.87 C608.6,102.97 603.38,100.05 600.64,95.48 C596.38,88.85 598.37,79.24 604.88,74.81 C608.89,71.68 614.17,71.86 618.99,71.94 C635.96,72.01 652.94,71.89 669.92,72.01 C667.17,66.73 667.94,60.68 667.89,54.96 C667.88,47.18 667.88,39.39 667.89,31.61 C626.56,31.59 585.24,31.59 543.92,31.6 Z" id="Shape"></path>
            <path d="M128.47,128.77 C141.81,127.28 155.67,128.51 168.12,133.76 C185.78,140.44 200.41,154.13 209.38,170.62 C214.23,180.77 218.53,191.6 218.64,203 C219.81,216.53 217.27,230.32 211.66,242.66 C204.15,259.89 189.99,274.07 172.98,281.98 C163.35,286.64 152.71,288.92 142.09,289.79 C128.14,289.9 114.03,286.91 101.61,280.43 C93.62,276.54 86.84,270.67 80.55,264.48 C59.73,242.77 52.93,208.89 63.76,180.82 C69.82,163.37 82.66,148.72 98.33,139.16 C107.79,134.26 117.76,129.91 128.47,128.77 Z M128.19,160.2 C115.31,163.39 103.64,171.53 96.81,182.99 C84.58,202.63 88.25,230.84 106,245.96 C114.49,254.2 126.31,258.04 137.93,258.82 C156.31,259.09 174.71,248.43 182.64,231.67 C187.95,221.35 189.18,209.22 186.91,197.91 C183.2,182.74 172.64,169 158,163.03 C148.75,158.7 138.1,158.72 128.19,160.2 Z" id="Shape"></path>
            <path d="M631.48,140.65 C642.32,138.25 654,139.99 663.7,145.36 C678.75,153.06 688.37,169.33 689.61,185.98 C689.62,195.86 687.82,206.02 682.36,214.42 C672.43,231.45 651.32,240.57 632.06,237.01 C621.04,234.42 610.18,228.99 603.16,219.86 C598.96,214.66 595.96,208.58 593.83,202.28 C590.39,188.57 592.05,173.16 600.41,161.48 C607.33,150.56 619.06,143.51 631.48,140.65 Z M636.34,171.47 C625.78,173.82 619.86,186.69 624.7,196.3 C628.66,206.08 642.11,209.88 650.69,203.81 C657.45,199.54 660.14,190.48 657.65,183.03 C655.13,174.36 645.1,168.16 636.34,171.47 Z" id="Shape"></path>
            <path d="M414.17,150.2 C453.87,148.05 494.11,158.24 528.03,178.95 C558.56,197.17 583.76,223.95 600.93,255.01 C629.22,305.78 634.33,368.77 614.46,423.39 C610.43,435.88 604.21,447.49 597.85,458.92 C588.24,475.34 576.24,490.37 562.37,503.39 C554.04,511.9 544.14,518.62 534.37,525.33 C520.39,534.95 504.92,542.3 488.87,547.73 C469.45,555 448.56,557.06 428,558.22 C411.76,558.31 395.46,557.02 379.56,553.58 C343.19,545.13 309.3,526.55 282.55,500.51 C258.02,476.01 239.34,445.47 229.92,412.03 C222.9,389.45 220.71,365.57 221.87,342.03 C223.08,323.99 226.76,306.18 232.02,288.91 C237.48,273.34 244.81,258.47 253.24,244.31 C277.18,207.25 312.81,177.26 354.6,162.48 C373.64,155.23 393.81,150.99 414.17,150.2 Z M404.52,181.87 C391.14,183.51 377.96,186.62 365.37,191.48 C329.99,203.91 299.91,229.34 279.55,260.59 C272.41,272.63 266.17,285.24 261.47,298.43 C257.6,311.18 254.72,324.26 253.3,337.52 C250.28,367.41 255.42,397.98 267.63,425.41 C275.16,442.99 286.28,458.83 298.98,473.05 C322.5,498.09 353.59,515.92 387.09,523.54 C399.54,526.24 412.28,527.07 424.98,527.36 C439.7,526.79 454.46,525.24 468.79,521.74 C478.17,518.88 487.5,515.7 496.34,511.41 C509.27,505.73 520.75,497.34 532.05,488.99 C555.23,469.99 573.19,444.82 583.95,416.86 C596.45,384.28 598.96,347.92 590.8,313.96 C583.37,282.12 566.63,252.58 543.3,229.69 C517.58,204.24 483.42,187.28 447.48,182.73 C433.29,180.3 418.81,180.51 404.52,181.87 Z" id="Shape"></path>
            <path d="M409.23,223.24 C415.66,222.74 423.03,221.16 428.55,225.5 C435.74,230.45 436.96,241.68 431.07,248.1 C427.91,251.92 422.91,253.5 418.09,253.56 C382.09,255.3 348.03,278.25 332.81,310.9 C316.51,342.82 319.3,383.14 338.89,413 C346.2,423.79 355.08,433.87 366.26,440.76 C371.29,444.07 376.31,447.46 381.71,450.16 C395.31,456.12 410.13,459.69 425.05,458.91 C460.27,459.71 494.39,439.08 511.74,408.7 C530.39,377.42 530.48,336.25 512.15,304.8 C500.19,283.88 480.81,267.07 457.92,259.26 C453.74,257.95 449.79,255.37 447.76,251.38 C444.2,245 445.97,236.22 451.84,231.83 C455.73,228.74 461.15,227.7 465.88,229.25 C498,239.66 525.27,263.31 541.01,293.08 C560.54,329.3 561.98,374.52 544.88,411.94 C530.32,444.44 502.28,470.67 468.63,482.48 C453.81,488.23 437.8,490.09 421.99,489.84 C409.4,490.17 396.85,488.04 384.86,484.28 C377.52,481.88 370.11,479.42 363.43,475.47 C354.91,470.54 346.69,465.09 338.76,459.28 C325.22,447.27 313.33,433.07 305.52,416.65 C290.11,386.52 287.09,350.38 296.84,318.01 C299.57,307.37 304.72,297.59 309.91,287.99 C330.45,252.48 368.39,227.6 409.23,223.24 Z" id="Shape"></path>
            <path d="M395.42,282.65 C402.3,280.7 410.15,284.31 413.19,290.77 C416.69,297.56 414.17,306.73 407.56,310.63 C401.91,313.86 395.57,316.16 391.12,321.14 C380.05,330.74 374.45,345.62 374.87,360.11 C374.96,365.73 371.69,371.21 366.69,373.81 C359.92,377.62 350.58,375.2 346.47,368.62 C342.91,363.45 344.03,356.86 344.17,350.97 C345.91,334.36 352.17,317.97 363.3,305.37 C369.47,298.82 375.92,292.23 384.02,288.07 C387.76,286.15 391.4,283.94 395.42,282.65 Z" id="Shape"></path>
            <path d="M67.38,354.42 C73.89,352.01 81.84,354.54 85.57,360.44 C87.5,363.22 88.19,366.63 88.13,369.98 C88.09,388.64 88.15,407.3 88.1,425.96 C88.18,430.91 85.65,435.75 81.6,438.58 C76.55,442.26 69.25,442.36 64.1,438.83 C59.85,436.07 57.18,431.11 57.21,426.05 C57.19,407.01 57.2,387.98 57.21,368.94 C57.1,362.58 61.39,356.51 67.38,354.42 Z" id="Shape"></path>
            <path d="M370.36,385.53 C379,382.61 389.09,388.99 390.14,398.04 C391.68,406.54 384.76,415.27 376.14,415.7 C368.42,416.55 360.78,410.63 359.65,402.97 C358.17,395.52 363.08,387.59 370.36,385.53 Z" id="Shape"></path>
            <path d="M70.35,459.48 C78.09,456.86 87.79,460.17 90.9,468.08 C94.8,476.48 89.29,487.37 80.2,489.18 C72.89,491.13 64.29,487.84 61.18,480.71 C57.18,472.71 61.78,462.04 70.35,459.48 Z" id="Shape"></path>
        </g>
    </g>
</svg>