<?xml version="1.0" encoding="UTF-8"?>
<svg width="92px" height="91px" viewBox="0 0 92 91" version="1.1" xmlns="http://www.w3.org/2000/svg" xmlns:xlink="http://www.w3.org/1999/xlink">
    <!-- Generator: Sketch 49.1 (51147) - http://www.bohemiancoding.com/sketch -->
    <title>Group 11</title>
    <desc>Created with Sketch.</desc>
    <defs></defs>
    <g id="Page-1" stroke="none" stroke-width="1" fill="none" fill-rule="evenodd">
        <g id="Group-11" transform="translate(-1.000000, 0.000000)" fill="#02263E" fill-rule="nonzero">
            <path d="M90.442,67.336 L90.031,68.399 C83.047,81.999 70.672,90.344 53.019,90.712 C44.767,90.882 36.904,88.764 31.768,86.462 C20.682,81.482 11.36,72.245 6.267,62.378 C-1.036,48.232 -2.354,28.554 12.833,13.856 C13.067,13.856 10.991,17.044 11.225,17.044 L10.807,18.404 C-0.136,52.666 33.582,82.028 66.357,78.67 C74.234,77.862 84.279,73.549 90.442,67.336 Z" id="Shape"></path>
            <path d="M91.738,24.566 C90.456,27.506 83.075,33.059 79.816,33.753 C66.91,36.501 58.643,30.381 54.315,23.418 C53.67,22.377 52.48,19.536 52.268,18.814 C50.589,13.104 51.361,4.47 56.37,0 C54.861,4.25 54.642,9.187 55.435,12.396 C55.917,14.337 57.383,17.723 58.849,19.855 C61.52,23.737 63.212,24.679 66.641,26.74 C68.185,27.668 69.843,28.412 70.558,28.617 C73.809,29.574 80.673,32.096 91.738,24.566 Z" id="Shape"></path>
            <path d="M70.608,53.169 C78.853,53.226 87.467,49.372 92.567,43.96 C88.104,55.287 75.184,62.569 57.858,60.252 C43.35,58.312 29.53,43.713 28.106,29.085 C27.065,18.438 30.777,12.084 36.89,4.378 C34.765,8.409 33.972,11.518 33.773,13.502 C31.45,36.53 52.169,53.049 70.608,53.169 Z" id="Shape"></path>
        </g>
    </g>
</svg>