<?xml version="1.0" encoding="UTF-8"?>
<svg width="54px" height="64px" viewBox="0 0 54 64" version="1.1" xmlns="http://www.w3.org/2000/svg" xmlns:xlink="http://www.w3.org/1999/xlink">
    <!-- Generator: Sketch 49.1 (51147) - http://www.bohemiancoding.com/sketch -->
    <title>Group 10</title>
    <desc>Created with Sketch.</desc>
    <defs></defs>
    <g id="Page-1" stroke="none" stroke-width="1" fill="none" fill-rule="evenodd">
        <g id="Group-10" fill="#02263E" fill-rule="nonzero">
            <path d="M6.779,22.535 L6.779,40.696 C6.779,41.718 7.608,42.548 8.631,42.548 L51.874,42.548 C52.896,42.548 53.726,41.719 53.726,40.696 L53.726,22.535 C53.726,21.512 52.897,20.684 51.874,20.684 L42.441,20.684 L42.367,2.021 C42.365,1.24 41.731,0.608 40.95,0.608 L1.691,0.608 C0.908,0.608 0.274,1.243 0.274,2.025 L0.274,55.313 C0.274,59.749 3.882,63.357 8.318,63.358 L45.68,63.39 C50.117,63.39 53.725,59.781 53.725,55.312 C53.725,54.529 53.091,53.895 52.308,53.895 L14.946,53.895 C14.163,53.895 13.529,54.53 13.529,55.312 C13.529,58.185 11.192,60.522 8.319,60.522 C5.446,60.522 3.108,58.185 3.108,55.312 L3.108,3.443 L39.538,3.443 L39.606,20.684 L8.631,20.684 C7.608,20.684 6.779,21.512 6.779,22.535 Z M16.238,56.731 L50.704,56.731 C50.097,58.934 48.074,60.556 45.682,60.556 L14.44,60.529 C15.348,59.465 15.983,58.163 16.238,56.731 Z M39.106,33.874 C39.229,33.723 39.393,33.636 39.602,33.612 C39.809,33.589 39.989,33.643 40.141,33.775 C41.047,34.512 41.95,34.876 42.848,34.866 C43.555,34.866 44.129,34.703 44.569,34.377 C45.008,34.051 45.229,33.699 45.229,33.321 C45.229,32.603 44.397,32.088 42.735,31.776 L42.706,31.776 C41.97,31.634 41.331,31.436 40.792,31.181 C40.255,30.926 39.86,30.598 39.608,30.196 C39.358,29.795 39.233,29.381 39.233,28.956 C39.233,28.134 39.594,27.458 40.317,26.929 C41.04,26.4 41.874,26.136 42.819,26.136 C43.235,26.136 43.661,26.207 44.094,26.348 C44.53,26.49 44.852,26.622 45.065,26.745 C45.278,26.868 45.559,27.042 45.909,27.269 C46.069,27.382 46.171,27.538 46.214,27.737 C46.257,27.935 46.224,28.117 46.114,28.282 C46.007,28.448 45.852,28.552 45.653,28.594 C45.456,28.636 45.27,28.601 45.1,28.488 C44.657,28.186 44.262,27.959 43.916,27.808 C43.572,27.657 43.205,27.581 42.818,27.581 C42.195,27.581 41.685,27.728 41.287,28.02 C40.891,28.313 40.693,28.625 40.693,28.956 C40.693,29.117 40.73,29.254 40.806,29.367 C41.07,29.802 41.783,30.128 42.945,30.345 L42.974,30.345 C43.767,30.506 44.419,30.704 44.929,30.94 C46.101,31.516 46.687,32.31 46.687,33.321 C46.687,34.2 46.3,34.921 45.525,35.483 C44.75,36.045 43.857,36.326 42.847,36.326 C41.609,36.317 40.4,35.844 39.218,34.909 C39.066,34.786 38.98,34.621 38.956,34.413 C38.933,34.205 38.983,34.025 39.106,33.874 Z M29.653,33.874 C29.776,33.723 29.94,33.636 30.149,33.612 C30.356,33.589 30.536,33.643 30.688,33.775 C31.594,34.512 32.497,34.876 33.395,34.866 C34.102,34.866 34.676,34.703 35.116,34.377 C35.555,34.051 35.776,33.699 35.776,33.321 C35.776,32.603 34.944,32.088 33.282,31.776 L33.253,31.776 C32.517,31.634 31.878,31.436 31.339,31.181 C30.802,30.926 30.407,30.598 30.155,30.196 C29.905,29.795 29.78,29.381 29.78,28.956 C29.78,28.134 30.141,27.458 30.864,26.929 C31.587,26.4 32.421,26.136 33.366,26.136 C33.782,26.136 34.208,26.207 34.641,26.348 C35.077,26.49 35.399,26.622 35.612,26.745 C35.825,26.868 36.106,27.042 36.456,27.269 C36.616,27.382 36.718,27.538 36.761,27.737 C36.804,27.935 36.771,28.117 36.661,28.282 C36.554,28.448 36.399,28.552 36.2,28.594 C36.003,28.636 35.817,28.601 35.647,28.488 C35.204,28.186 34.809,27.959 34.463,27.808 C34.119,27.657 33.752,27.581 33.365,27.581 C32.742,27.581 32.232,27.728 31.834,28.02 C31.438,28.313 31.24,28.625 31.24,28.956 C31.24,29.117 31.277,29.254 31.353,29.367 C31.617,29.802 32.33,30.128 33.492,30.345 L33.521,30.345 C34.314,30.506 34.966,30.704 35.476,30.94 C36.648,31.516 37.234,32.31 37.234,33.321 C37.234,34.2 36.847,34.921 36.072,35.483 C35.297,36.045 34.404,36.326 33.394,36.326 C32.156,36.317 30.947,35.844 29.765,34.909 C29.613,34.786 29.527,34.621 29.503,34.413 C29.479,34.205 29.53,34.025 29.653,33.874 Z M21.56,27.198 C21.56,26.981 21.636,26.796 21.789,26.645 C21.939,26.494 22.123,26.418 22.342,26.418 L26.977,26.418 C27.184,26.418 27.366,26.494 27.522,26.645 C27.678,26.796 27.756,26.98 27.756,27.198 C27.756,27.416 27.678,27.602 27.522,27.758 C27.366,27.914 27.184,27.992 26.977,27.992 L23.135,27.992 L23.135,30.586 L26.438,30.586 C26.645,30.586 26.827,30.664 26.983,30.82 C27.139,30.976 27.217,31.16 27.217,31.373 C27.217,31.586 27.141,31.77 26.99,31.926 C26.838,32.082 26.654,32.16 26.437,32.16 L23.134,32.16 L23.134,34.768 L26.976,34.768 C27.183,34.768 27.365,34.846 27.521,35.002 C27.677,35.158 27.755,35.342 27.755,35.555 C27.755,35.768 27.677,35.952 27.521,36.108 C27.365,36.264 27.183,36.342 26.976,36.342 L22.382,36.342 L22.355,36.328 L22.341,36.342 C22.122,36.342 21.939,36.266 21.788,36.115 C21.636,35.964 21.559,35.78 21.559,35.562 L21.559,27.198 L21.56,27.198 Z M13.581,27.198 C13.581,26.981 13.657,26.796 13.808,26.645 C13.958,26.494 14.144,26.418 14.361,26.418 C14.578,26.418 14.765,26.494 14.922,26.645 C15.078,26.796 15.154,26.98 15.154,27.198 L15.154,34.766 L18.996,34.766 C19.203,34.766 19.387,34.844 19.541,35 C19.697,35.156 19.775,35.34 19.775,35.553 C19.775,35.766 19.697,35.95 19.541,36.106 C19.387,36.262 19.203,36.34 18.996,36.34 L14.36,36.34 C14.143,36.34 13.958,36.264 13.807,36.113 C13.657,35.962 13.58,35.778 13.58,35.56 L13.58,27.198 L13.581,27.198 Z" id="Shape"></path>
        </g>
    </g>
</svg>