<?xml version="1.0" encoding="UTF-8"?>
<svg width="177px" height="176px" viewBox="0 0 177 176" version="1.1" xmlns="http://www.w3.org/2000/svg" xmlns:xlink="http://www.w3.org/1999/xlink">
    <!-- Generator: Sketch 49.1 (51147) - http://www.bohemiancoding.com/sketch -->
    <title>Group 12</title>
    <desc>Created with Sketch.</desc>
    <defs></defs>
    <g id="Page-1" stroke="none" stroke-width="1" fill="none" fill-rule="evenodd">
        <g id="Group-12" fill="#02263E" fill-rule="nonzero">
            <path d="M159.766,176 L17.766,176 C8.392,176 0.766,168.374 0.766,159 L0.766,17 C0.766,7.626 8.392,0 17.766,0 L159.766,0 C169.14,0 176.766,7.626 176.766,17 L176.766,159 C176.766,168.374 169.14,176 159.766,176 Z M17.766,10 C13.906,10 10.766,13.141 10.766,17 L10.766,159 C10.766,162.859 13.906,166 17.766,166 L159.766,166 C163.626,166 166.766,162.859 166.766,159 L166.766,17 C166.766,13.141 163.626,10 159.766,10 L17.766,10 Z" id="Shape"></path>
            <path d="M50.979,50.949 C55.146,50.254 60.603,49.658 67.548,49.658 C76.08,49.658 82.331,51.642 86.299,55.215 C89.871,58.389 92.153,63.25 92.153,69.203 C92.153,75.256 90.367,80.017 86.994,83.49 C82.331,88.351 74.99,90.832 66.556,90.832 C63.976,90.832 61.595,90.732 59.611,90.236 L59.611,117.023 L50.979,117.023 L50.979,50.949 Z M59.611,83.193 C61.496,83.687 63.877,83.886 66.754,83.886 C77.171,83.886 83.521,78.728 83.521,69.698 C83.521,60.768 77.171,56.503 67.746,56.503 C63.976,56.503 61.099,56.802 59.611,57.198 L59.611,83.193 Z" id="Shape"></path>
            <path d="M100.091,108.193 C102.77,109.781 107.334,111.566 111.699,111.566 C117.949,111.566 120.926,108.492 120.926,104.423 C120.926,100.257 118.446,98.073 112.096,95.693 C103.366,92.517 99.298,87.855 99.298,82.101 C99.298,74.363 105.648,68.013 115.866,68.013 C120.727,68.013 124.994,69.302 127.573,70.988 L125.49,77.338 C123.605,76.149 120.133,74.461 115.668,74.461 C110.509,74.461 107.731,77.438 107.731,81.01 C107.731,84.979 110.509,86.764 116.759,89.244 C124.994,92.32 129.359,96.486 129.359,103.631 C129.359,112.162 122.712,118.115 111.501,118.115 C106.243,118.115 101.381,116.726 98.008,114.742 L100.091,108.193 Z" id="Shape"></path>
        </g>
    </g>
</svg>