<?xml version="1.0" encoding="UTF-8"?>
<svg width="508px" height="508px" viewBox="0 0 508 508" version="1.1" xmlns="http://www.w3.org/2000/svg" xmlns:xlink="http://www.w3.org/1999/xlink">
    <!-- Generator: Sketch 49.1 (51147) - http://www.bohemiancoding.com/sketch -->
    <title>Group 5</title>
    <desc>Created with Sketch.</desc>
    <defs></defs>
    <g id="Page-1" stroke="none" stroke-width="1" fill="none" fill-rule="evenodd">
        <g id="Group-5" fill="#02263E" fill-rule="nonzero">
            <path d="M491.2,132.6 C459.3,100.8 420.8,121.8 409.9,132.6 L394.1,148.3 L394.1,0 L0,0 L0,508 L394.1,508 L394.1,310.5 L491.1,213.7 C513.6,191.3 513.6,155 491.2,132.6 Z M377.7,491.6 L16.4,491.6 L16.4,16.4 L377.7,16.4 L377.7,164.7 L345.7,196.6 L229.9,196.6 L229.9,213 L329.3,213 L263.6,278.5 L49.3,278.5 L49.3,295 L247.2,295 L181.5,360.5 L49.3,360.5 L49.3,376.9 L169.6,376.9 L163.2,459.9 L251.3,453.1 L377.8,326.9 L377.8,491.6 L377.7,491.6 Z M184.7,394.1 L229.1,438.4 L181,442.1 L184.7,394.1 Z M247.6,433.6 L189.5,375.7 L415.7,150 L473.8,207.9 L247.6,433.6 Z M484.8,195.7 L427.9,139 C434.6,134.6 458.6,123.2 479.6,144.2 C493.6,158.2 495.3,179.8 484.8,195.7 Z" id="Shape"></path>
            <polygon id="Shape" points="236 398.8 438.9 196.3 427.3 184.7 224.4 387.2"></polygon>
            <path d="M196.7,49.2 L49.3,49.2 L49.3,213 L196.8,213 L196.8,49.2 L196.7,49.2 Z M180.3,196.6 L65.7,196.6 L65.7,65.5 L180.3,65.5 L180.3,196.6 Z" id="Shape"></path>
            <path d="M123,155.7 C141.1,155.7 155.8,170.4 155.8,188.5 L172.2,188.5 C172.2,167.5 159,149.6 140.4,142.6 C149.7,136.8 155.9,126.5 155.9,114.8 C155.9,96.6 141.1,81.9 122.9,81.9 C104.7,81.9 89.9,96.7 89.9,114.8 C89.9,126.5 96.1,136.8 105.4,142.6 C86.8,149.7 73.6,167.5 73.6,188.5 L90,188.5 C90.2,170.4 104.9,155.7 123,155.7 Z M123,98.2 C132.1,98.2 139.6,105.6 139.6,114.8 C139.6,123.9 132.2,131.4 123,131.4 C113.9,131.4 106.4,124 106.4,114.8 C106.4,105.6 113.9,98.2 123,98.2 Z" id="Shape"></path>
            <rect id="Rectangle-path" x="229.9" y="49.2" width="115" height="16.4"></rect>
            <rect id="Rectangle-path" x="229.9" y="122.9" width="115" height="16.4"></rect>
            <rect id="Rectangle-path" x="49.3" y="442.5" width="16.4" height="16.4"></rect>
            <rect id="Rectangle-path" x="82.1" y="442.5" width="16.4" height="16.4"></rect>
            <rect id="Rectangle-path" x="115" y="442.5" width="16.4" height="16.4"></rect>
        </g>
    </g>
</svg>