<?xml version="1.0" encoding="UTF-8"?>
<svg width="62px" height="50px" viewBox="0 0 62 50" version="1.1" xmlns="http://www.w3.org/2000/svg" xmlns:xlink="http://www.w3.org/1999/xlink">
    <!-- Generator: Sketch 49.1 (51147) - http://www.bohemiancoding.com/sketch -->
    <title>Group 9</title>
    <desc>Created with Sketch.</desc>
    <defs></defs>
    <g id="Page-1" stroke="none" stroke-width="1" fill="none" fill-rule="evenodd">
        <g id="Group-9">
            <path d="M55.803,12.376 L6.197,12.376 C4.904,12.376 3.851,13.492 3.851,14.864 L3.851,15.607 L3.851,43.976 C3.851,45.348 4.903,46.464 6.197,46.464 L55.802,46.464 C57.095,46.464 58.148,45.348 58.148,43.976 L58.148,15.67 L58.148,14.864 C58.148,13.492 57.096,12.376 55.803,12.376 Z" id="Shape"></path>
            <path d="M6.197,9.376 L55.802,9.376 C56.537,9.376 57.237,9.529 57.875,9.806 C57.476,8.676 56.681,7.858 55.802,7.858 L25.549,7.858 C23.35,7.858 22.322,6.344 21.572,5.238 C20.791,4.088 20.364,3.535 19.178,3.535 L6.198,3.535 C4.948,3.535 3.852,5.171 3.852,7.035 L3.852,9.94 C4.561,9.583 5.355,9.376 6.197,9.376 Z" id="Shape"></path>
            <path d="M55.803,4.858 L25.549,4.858 C25.011,4.858 24.761,4.596 24.054,3.554 C23.238,2.352 22.005,0.535 19.178,0.535 L6.198,0.535 C3.25,0.535 0.852,3.451 0.852,7.035 L0.852,14.864 L0.852,15.607 L0.852,43.976 C0.852,47.002 3.25,49.464 6.198,49.464 L55.803,49.464 C58.751,49.464 61.149,47.002 61.149,43.976 L61.149,15.67 L61.149,14.864 L61.149,11.358 C61.148,7.774 58.75,4.858 55.803,4.858 Z M6.197,3.535 L19.177,3.535 C20.363,3.535 20.79,4.088 21.571,5.238 C22.321,6.343 23.349,7.858 25.548,7.858 L55.802,7.858 C56.681,7.858 57.476,8.676 57.875,9.806 C57.237,9.53 56.537,9.376 55.802,9.376 L6.197,9.376 C5.355,9.376 4.561,9.583 3.851,9.94 L3.851,7.035 C3.852,5.171 4.948,3.535 6.197,3.535 Z M58.148,43.977 C58.148,45.349 57.096,46.465 55.802,46.465 L6.197,46.465 C4.904,46.465 3.851,45.349 3.851,43.977 L3.851,15.607 L3.851,14.864 C3.851,13.492 4.903,12.376 6.197,12.376 L55.802,12.376 C57.095,12.376 58.148,13.492 58.148,14.864 L58.148,15.67 L58.148,43.977 Z" id="Shape" fill="#02263E" fill-rule="nonzero"></path>
            <polygon id="Shape" fill="#02263E" fill-rule="nonzero" points="10.646 33.336 12.289 33.336 12.289 34.993 10.646 34.993"></polygon>
            <path d="M15.775,31.646 L15.775,32.467 C15.775,33.288 16.833,33.779 18.001,33.779 C19.28,33.779 20.213,33.178 20.213,32.073 C20.213,30.778 18.901,30.352 17.527,29.815 C16.059,29.262 14.559,28.63 14.559,26.658 C14.559,24.557 16.248,23.658 18.127,23.658 C19.801,23.658 21.506,24.29 21.506,25.505 L21.506,26.816 L20.038,26.816 L20.038,26.043 C20.038,25.396 19.043,25.049 18.127,25.049 C17.038,25.049 16.17,25.554 16.17,26.58 C16.17,27.764 17.29,28.159 18.537,28.632 C20.18,29.248 21.806,29.88 21.806,31.948 C21.806,34.079 20.07,35.184 18,35.184 C16.264,35.184 14.321,34.411 14.321,32.816 L14.321,31.647 L15.775,31.647 L15.775,31.646 Z" id="Shape" fill="#02263E" fill-rule="nonzero"></path>
            <path d="M22.704,33.762 L23.777,33.762 L27.33,23.847 L29.114,23.847 L32.667,33.762 L33.74,33.762 L33.74,34.993 L29.872,34.993 L29.872,33.762 L31.057,33.762 L30.189,31.283 L26.242,31.283 L25.374,33.762 L26.573,33.762 L26.573,34.993 L22.705,34.993 L22.705,33.762 L22.704,33.762 Z M29.793,30.02 L28.436,26.152 C28.278,25.695 28.247,25.299 28.247,25.299 L28.2,25.299 C28.2,25.299 28.152,25.695 28.011,26.152 L26.637,30.02 L29.793,30.02 Z" id="Shape" fill="#02263E" fill-rule="nonzero"></path>
            <path d="M36.2,31.646 L36.2,32.467 C36.2,33.288 37.258,33.779 38.427,33.779 C39.706,33.779 40.638,33.178 40.638,32.073 C40.638,30.778 39.326,30.352 37.953,29.815 C36.485,29.262 34.984,28.63 34.984,26.658 C34.984,24.557 36.673,23.658 38.552,23.658 C40.226,23.658 41.932,24.29 41.932,25.505 L41.932,26.816 L40.463,26.816 L40.463,26.043 C40.463,25.396 39.468,25.049 38.552,25.049 C37.463,25.049 36.595,25.554 36.595,26.58 C36.595,27.764 37.716,28.159 38.962,28.632 C40.605,29.248 42.232,29.88 42.232,31.948 C42.232,34.079 40.495,35.184 38.426,35.184 C36.689,35.184 34.746,34.411 34.746,32.816 L34.746,31.647 L36.2,31.647 L36.2,31.646 Z" id="Shape" fill="#02263E" fill-rule="nonzero"></path>
            <path d="M45.323,31.646 L45.323,32.467 C45.323,33.288 46.382,33.779 47.55,33.779 C48.828,33.779 49.76,33.178 49.76,32.073 C49.76,30.778 48.45,30.352 47.076,29.815 C45.607,29.262 44.108,28.63 44.108,26.658 C44.108,24.557 45.796,23.658 47.675,23.658 C49.349,23.658 51.054,24.29 51.054,25.505 L51.054,26.816 L49.585,26.816 L49.585,26.043 C49.585,25.396 48.591,25.049 47.675,25.049 C46.586,25.049 45.717,25.554 45.717,26.58 C45.717,27.764 46.838,28.159 48.086,28.632 C49.728,29.248 51.354,29.88 51.354,31.948 C51.354,34.079 49.618,35.184 47.549,35.184 C45.813,35.184 43.87,34.411 43.87,32.816 L43.87,31.647 L45.323,31.647 L45.323,31.646 Z" id="Shape" fill="#02263E" fill-rule="nonzero"></path>
        </g>
    </g>
</svg>