<?xml version="1.0" encoding="utf-8"?>
<!-- Generator: Adobe Illustrator 15.0.0, SVG Export Plug-In . SVG Version: 6.00 Build 0)  -->
<!DOCTYPE svg PUBLIC "-//W3C//DTD SVG 1.1//EN" "http://www.w3.org/Graphics/SVG/1.1/DTD/svg11.dtd">
<svg version="1.1" id="resume" xmlns="http://www.w3.org/2000/svg" xmlns:xlink="http://www.w3.org/1999/xlink" x="0px" y="0px"
	 width="138.167px" height="195px" viewBox="0 0 138.167 195" enable-background="new 0 0 138.167 195" xml:space="preserve">
<g opacity="0.2">
	<polygon fill="#02263E" points="4.886,189.668 4.886,27.501 1.886,27.501 1.886,193.502 127.884,193.502 127.884,189.752 	"/>
</g>
<path fill="#02263E" d="M95.481,19.559v-4.843c0-2.149-2.038-3.434-4.008-3.434H85.3c-2.586-5.978-8.42-9.783-15.148-9.783
	c-6.729,0-12.563,3.805-15.149,9.783h-5.298c-2.177,0-3.883,1.508-3.883,3.434v4.843H4.657v170.675h132.74V19.559H95.481z
	 M91.473,32.35h-41.77c-0.315,0-0.873-0.592-0.873-1.023v-4.243h43.641v4.243C92.471,31.7,91.835,32.35,91.473,32.35z M49.704,35.36
	h41.77c2.021,0,4.008-1.998,4.008-4.033v-0.481h31.383v149.607H15.192V30.846h30.63v0.481C45.822,33.399,47.708,35.36,49.704,35.36z
	 M49.704,14.292h7.38l0.357-0.998c1.941-5.419,6.812-8.786,12.71-8.786c5.897,0,10.771,3.366,12.71,8.786l0.355,0.998h8.255
	c0.565,0,1,0.301,1,0.424v10.862h-43.64V14.717C48.831,14.502,49.264,14.292,49.704,14.292z M134.387,187.227H7.667V22.569h38.154
	v6.772H13.687v152.618h114.682V29.341H95.481v-6.772h38.906V187.227z"/>
<g>
	<g>
		<path fill="#02263E" d="M36.722,108.598c-1.251,0-2.271-1.02-2.271-2.271s1.02-2.271,2.271-2.271c1.253,0,2.271,1.021,2.271,2.271
			S37.975,108.598,36.722,108.598z M36.722,104.982c-0.739,0-1.342,0.604-1.342,1.344c0,0.738,0.603,1.342,1.342,1.342
			c0.74,0,1.343-0.604,1.343-1.342C38.065,105.586,37.462,104.982,36.722,104.982z"/>
	</g>
	<g>
		<g>
			<path fill="#02263E" d="M37.261,59.256c-4.011,0-7.274-3.263-7.274-7.274c0-4.01,3.264-7.273,7.274-7.273
				c4.01,0,7.273,3.263,7.273,7.273C44.534,55.994,41.272,59.256,37.261,59.256z M37.261,45.858c-3.378,0-6.125,2.748-6.125,6.125
				c0,3.378,2.747,6.126,6.125,6.126c3.377,0,6.125-2.748,6.125-6.126S40.638,45.858,37.261,45.858z"/>
		</g>
	</g>
	<g>
		<path fill="#02263E" d="M37.428,56.094c-2.297,0-4.166-1.869-4.166-4.167c0-2.297,1.869-4.166,4.166-4.166
			c2.298,0,4.166,1.869,4.166,4.166C41.594,54.225,39.726,56.094,37.428,56.094z M37.428,49.154c-1.528,0-2.772,1.244-2.772,2.773
			c0,1.529,1.244,2.773,2.772,2.773c1.529,0,2.773-1.244,2.773-2.773C40.201,50.398,38.957,49.154,37.428,49.154z"/>
	</g>
	<path fill="#02263E" d="M102.645,50.896c-0.588-2.213-2.823-4.394-5.375-4.394h-2.386v-2h-8v2H45.99
		c-1.865-3-5.052-4.756-8.666-4.756c-1.672,0-3.254,0.308-4.659,1.018l-6.412-6.459l-4.376,4.353L28.2,46.97
		c-0.834,1.499-1.241,3.213-1.241,5.038c0,4.504,2.927,8.386,6.927,9.829v39.845c-2,0.986-2.466,2.672-2.466,4.584
		s0.466,3.599,2.466,4.586v2.066c0,2.551,2.18,4.787,4.394,5.375l1.606,3.43v-4.221h-0.105c0,0,0.105,0.375,0.105,0.367v-6.996
		c1-0.982,2.503-2.682,2.503-4.607c0-1.928-1.503-3.625-2.503-4.606V62.113c1-0.292,2.238-0.758,3.209-1.365l1.871,1.897
		l4.016-4.345l-2.063-2.117c0.474-1.112,0.75-2.682,0.797-3.682h58.36L102.645,50.896z M87.884,45.501h6v1h-6V45.501z
		 M23.501,40.634l2.752-2.752l5.383,5.382c-1.094,0.718-2.046,1.636-2.805,2.7L23.501,40.634z M38.886,117.238
		c-2-0.357-4-2.285-4-4.32v-1.4c1,0.162,1.214,0.252,1.786,0.252c0.732,0,1.214-0.146,2.214-0.408V117.238z M41.137,106.266
		c0,2.4-1.954,4.354-4.354,4.354c-2.401,0-4.354-1.953-4.354-4.354c0-2.4,1.953-4.354,4.354-4.354
		C39.183,101.91,41.137,103.865,41.137,106.266z M36.672,100.764c-0.572,0-0.786,0.088-1.786,0.25v-38.8
		c1,0.198,1.619,0.297,2.45,0.297c0.582,0,1.55-0.05,1.55-0.104v38.763C37.886,100.91,37.405,100.764,36.672,100.764z
		 M37.324,61.299c-5.101,0-9.251-4.15-9.251-9.252s4.15-9.251,9.251-9.251c5.103,0,9.252,4.15,9.252,9.251
		S42.427,61.299,37.324,61.299z M47.374,58.331l-2.465,2.66l-0.918-0.918c0.965-0.768,1.772-1.69,2.384-2.741L47.374,58.331z
		 M47.694,51.501c-0.1-2-0.463-3-1.041-4h40.498h7.896h2.225c2.037,0,3.965,2,4.32,4H47.694z"/>
	<g opacity="0.2">
		<path fill="#02263E" d="M43.002,60.733c-0.936,0.617-2.116,1.089-3.116,1.379v0.534l1.922,1.789l2.372-2.523L43.002,60.733z"/>
	</g>
	<g opacity="0.2">
		<path fill="#02263E" d="M36.886,117.463c-2-1.01-3-2.693-3-4.545v-2.023c-2-0.979-2.536-2.688-2.536-4.627
			c0-1.942,0.536-3.647,2.536-4.629V61.836c-4-1.443-6.927-5.286-6.927-9.79c0-1.833,0.462-3.555,1.297-5.052l-6.37-6.361
			l1.973-1.977l-0.596-0.594l-4.377,4.369l6.36,6.357c-0.835,1.497-1.282,3.218-1.282,5.05c0,4.503,1.922,8.345,6.922,9.788v40.5
			c-2,0.899-1.962,2.322-1.962,3.931c0,1.604-0.038,3.028,1.962,3.93v2.723c0,2.551,2.18,4.789,4.395,5.375l1.605,3.43v-4.01H36.53
			c0.001,0,0.356,0.166,0.356,0.158V117.463z"/>
	</g>
	<g opacity="0.2">
		<path fill="#02263E" d="M99.578,52.501H47.715c-0.023,1-0.115,1-0.256,2h51.77c0.009,0-0.345-0.021-0.345-0.022v0.022h4.195
			l-3.429-1.712C99.63,52.708,99.604,52.501,99.578,52.501z"/>
	</g>
</g>
<g>
	<path fill="#02263E" d="M106.966,155.066v-53.459l-28.704,53.459H106.966z M104.703,152.801h-22.65l22.65-42.184V152.801z"/>
	<path fill="#02263E" d="M52.359,170.927h67.639V49.892L52.359,170.927z M117.731,58.591v1.911h-1.067L117.731,58.591z
		 M116.104,61.501h1.627v2h-2.744L116.104,61.501z M56.221,168.66l58.665-104.979v0.82h2.846v2h-2.846v1h2.846v2h-2.846v1h2.846v2
		h-6.846v1h6.846v2h-2.846v1h2.846v2h-2.846v1h2.846v2h-2.846v1h2.846v1h-6.846v1h6.846v2h-2.846v1h2.846v2h-2.846v1h2.846v2h-2.846
		v1h2.846v2h-6.846v1h6.846v2h-2.846v1h2.846v1h-2.846v1h2.846v2h-2.846v1h2.846v2h-6.846v1h6.846v2h-2.846v1h2.846v2h-2.846v1
		h2.846v2h-2.846v1h2.846v1h-6.846v1h6.846v2h-2.846v1h2.846v2h-2.846v1h2.846v2h-2.846v1h2.846v2h-6.846v1h6.846v1h-2.846v1h2.846
		v2h-2.846v1h2.846v2h-2.846v1h2.846v2h-6.846v1h6.846v2h-2.846v1h2.846v2h-2.846v1h2.846v2h-2.846v1h2.846v1h-6.846v1h6.846v2
		h-2.846v1h2.846v2h-2.846v1h2.846v2h-2.846v1h2.846v2h-6.846v1h6.846v4.158L56.221,168.66L56.221,168.66z"/>
</g>
<g opacity="0.2">
	<polygon fill="#02263E" points="53.786,170.084 111.884,170.502 111.884,173.502 47.776,173.502 112.884,57.445 112.884,65.043 	
		"/>
</g>
<g opacity="0.2">
	<polygon fill="#02263E" points="104.884,107.625 104.729,153.502 102.009,153.502 101.846,113.541 	"/>
</g>
<g opacity="0.1">
	<path d="M32.428,89.393c-0.498-0.277-1.925-0.106-3.64,0.426c-3.001,2.051-5.533,5.072-5.71,9.924
		c-0.032,0.117-0.328-0.014-0.386-0.049c-0.811-1.555-1.131-3.192-0.455-5.551c0.125-0.21-0.287-0.47-0.361-0.395
		c-0.149,0.146-0.769,0.808-1.18,1.521c-2.037,3.536-0.704,8.066,2.861,10.049c3.567,1.986,8.067,0.705,10.053-2.865
		C35.907,98.343,33.773,90.146,32.428,89.393z"/>
	<g>
		<path d="M45.191,91.367c-4.23,0-7.297,3.146-7.297,7.472c0,4.367,3.062,7.416,7.444,7.416c2.214,0,3.967-0.692,5.359-2.116
			c0.417-0.451,0.462-0.886,0.462-1.05c0-0.707-0.525-1.221-1.248-1.221c-0.365,0-0.67,0.139-1.021,0.461
			c-0.789,0.734-1.827,1.488-3.553,1.488c-2.399,0-4.35-1.803-4.473-4.113h9.548c1.039,0,1.541-0.488,1.541-1.483
			c0-0.296,0-0.506-0.057-0.926C51.379,93.585,48.875,91.367,45.191,91.367L45.191,91.367z M45.191,93.685
			c2.29,0,3.762,1.465,3.853,3.82h-8.177C41.082,95.321,42.928,93.685,45.191,93.685z M61.071,91.367
			c-1.92,0-3.819,1.105-4.563,2.639v-0.949c0-1.466-1.138-1.542-1.366-1.542c-0.674,0-1.395,0.406-1.395,1.542v11.447
			c0,1.525,1.212,1.605,1.453,1.605c0.242,0,1.455-0.078,1.455-1.605v-6.137c0-2.669,1.513-4.534,3.68-4.534
			c2.098,0,3.117,1.374,3.117,4.208v6.463c0,1.525,1.211,1.605,1.453,1.605c0.244,0,1.457-0.078,1.457-1.605V97.13
			C66.362,94.342,64.973,91.367,61.071,91.367L61.071,91.367z M79.52,91.515c-0.674,0-1.157,0.392-1.45,1.164l-3.979,10.005
			l-3.951-10.005c-0.304-0.783-0.791-1.164-1.476-1.164c-0.804,0-1.453,0.629-1.453,1.393c0,0.194,0.021,0.439,0.181,0.828
			l4.569,10.794c0.55,1.303,1.443,1.576,2.101,1.576c0.658,0,1.557-0.273,2.1-1.576l4.602-10.856
			c0.159-0.38,0.185-0.659,0.185-0.793C80.946,92.104,80.333,91.515,79.52,91.515z M87.979,91.367c-1.862,0-3.594,0.521-4.881,1.459
			c-0.434,0.299-0.646,0.677-0.646,1.148c0,0.648,0.495,1.157,1.129,1.157c0.276,0,0.58-0.108,0.863-0.307
			c1.104-0.737,2.143-1.081,3.27-1.081c2.148,0,3.384,1.092,3.384,3.001v0.316c-4.826,0.006-9.74,0.586-9.74,4.785
			c0,3.024,2.587,4.379,5.147,4.379c2.037,0,3.666-0.808,4.71-2.336v0.731c0,1.099,0.735,1.486,1.366,1.486
			c0.133,0,1.306-0.043,1.306-1.486V96.92C93.889,93.445,91.68,91.367,87.979,91.367z M90.486,99.205h0.612v0.67
			c0,2.449-1.563,4.035-3.977,4.035c-0.657,0-2.795-0.156-2.795-2.121C84.328,99.471,87.842,99.205,90.486,99.205L90.486,99.205z
			 M101.461,94.155c1.273,0,1.335-0.99,1.335-1.188c0-0.589-0.35-1.217-1.335-1.217h-2.617v-2.648c0-1.184-0.767-1.602-1.425-1.602
			c-0.243,0-1.452,0.077-1.452,1.602v12.569c0,2.9,1.43,4.435,4.135,4.435c0.699,0,1.385-0.121,1.832-0.332
			c0.512-0.256,0.805-0.674,0.805-1.152c0-0.672-0.488-1.158-1.159-1.158c-0.13,0-0.313,0.031-0.519,0.091
			c-0.252,0.063-0.416,0.088-0.603,0.088c-1.103,0-1.614-0.724-1.614-2.265v-7.221L101.461,94.155L101.461,94.155z M111.08,91.367
			c-4.401,0-7.592,3.121-7.592,7.414c0,2.092,0.772,4,2.179,5.367c1.393,1.358,3.313,2.104,5.41,2.104
			c4.343,0,7.621-3.211,7.621-7.471C118.698,94.486,115.495,91.367,111.08,91.367L111.08,91.367z M111.08,103.789
			c-3.017,0-4.593-2.521-4.593-5.008c0-3.419,2.38-4.977,4.593-4.977s4.597,1.558,4.597,4.977
			C115.673,102.225,113.292,103.789,111.08,103.789z"/>
	</g>
</g>
</svg>
