<?xml version="1.0" encoding="utf-8"?>
<!-- Generator: Adobe Illustrator 15.0.0, SVG Export Plug-In . SVG Version: 6.00 Build 0)  -->
<!DOCTYPE svg PUBLIC "-//W3C//DTD SVG 1.1//EN" "http://www.w3.org/Graphics/SVG/1.1/DTD/svg11.dtd">
<svg version="1.1" id="portfolio" xmlns="http://www.w3.org/2000/svg" xmlns:xlink="http://www.w3.org/1999/xlink" x="0px" y="0px"
	 width="98.25px" height="143px" viewBox="0 0 98.25 143" enable-background="new 0 0 98.25 143" xml:space="preserve">
<g>
	<g opacity="0.2">
		<path fill="#02263E" d="M50.943,55.69c-3.348,0-6.351,1.493-8.382,3.847c1.428-0.593,2.992-0.92,4.633-0.92
			c6.683,0,12.101,5.417,12.101,12.102c0,1.42-0.244,2.778-0.695,4.045c2.107-2.021,3.426-4.855,3.426-7.997
			C62.021,60.661,57.053,55.69,50.943,55.69z"/>
	</g>
	<path opacity="0.2" fill="#02263E" enable-background="new    " d="M15.212,76.832c-0.921-3.229-1.424-6.628-1.424-10.147
		c0-6.421,1.643-12.466,4.525-17.736c-4.552,6.035-7.254,13.544-7.254,21.686c0,2.116,0.193,4.184,0.542,6.198L15.212,76.832
		L15.212,76.832z"/>
	<path fill="#02263E" d="M97.25,67.122c-3.451-3.111-6.518-5.831-10.363-9.146c-3.93-16.252-18.586-28.363-36.029-28.363
		c-17.313,0-31.886,11.932-35.943,28.002c-3.832,3.312-7.572,6.608-10.789,9.507v0.154v72.023H97.25V67.542h-0.012
		c0,0.009-0.002,0.018-0.002,0.027c0.002-0.098,0.014-0.194,0.014-0.293V67.122L97.25,67.122z M94.709,67.949
		c-0.285,4.512-3.543,7.756-8.006,8.088c0.783-2.99,1.227-6.119,1.227-9.353c0-1.593-0.111-3.159-0.309-4.699
		C91.396,65.229,94.709,67.949,94.709,67.949z M45.887,76.07h-0.936c-3.057-1.973-5.088-5.401-5.088-9.302
		c0-6.109,4.971-11.078,11.081-11.078c6.107,0,11.078,4.971,11.078,11.078c0,3.901-2.028,7.33-5.088,9.302H45.887z M64.066,66.769
		c0-7.236-5.887-13.124-13.123-13.124c-7.235,0-13.125,5.888-13.125,13.124c0,3.638,1.498,6.922,3.896,9.301h-4.586
		c-1.863-2.704-2.973-5.964-2.973-9.49c0-9.269,7.54-16.809,16.809-16.809c9.267,0,16.81,7.54,16.81,16.809
		c0,3.526-1.111,6.786-2.976,9.49H60.17C62.57,73.691,64.066,70.406,64.066,66.769z M17.136,76.07
		c-0.834-2.99-1.303-6.133-1.303-9.386c0-1.468,0.102-2.912,0.277-4.333l2.644,0.335c-0.177,1.366-0.278,2.756-0.278,4.169
		c0,3.205,0.496,6.292,1.372,9.213L17.136,76.07L17.136,76.07z M20.384,76.07c-0.892-2.92-1.397-6.007-1.397-9.215
		c0-1.392,0.1-2.759,0.274-4.104l14,1.775c-0.078,0.674-0.128,1.356-0.128,2.051c0,3.491,1.022,6.739,2.762,9.493H20.384z
		 M82.125,70.743L68.619,69.03c0.111-0.803,0.176-1.621,0.176-2.454c0-9.832-7.998-17.831-17.83-17.831
		c-4.263,0-8.179,1.508-11.251,4.013l-9.021-10.482c5.458-4.45,12.421-7.124,19.999-7.124c17.479,0,31.699,14.221,31.699,31.703
		C82.391,68.174,82.283,69.466,82.125,70.743z M38.95,53.439c-2.848,2.606-4.844,6.114-5.535,10.075l-14.01-1.777
		c1.216-7.458,5.042-14.045,10.508-18.799L38.95,53.439z M68.443,70.041l13.555,1.719c-0.23,1.475-0.578,2.911-1.006,4.311H66.033
		C67.182,74.254,68.01,72.219,68.443,70.041z M82.51,71.824l2.928,0.371c-0.211,1.318-0.504,2.609-0.856,3.875h-3.052
		C81.943,74.688,82.281,73.275,82.51,71.824z M85.883,66.684c0,1.525-0.117,3.022-0.309,4.497l-2.941-0.373
		c0.16-1.297,0.27-2.611,0.27-3.952c0-17.763-14.448-32.214-32.211-32.214c-7.704,0-14.781,2.721-20.332,7.248l-1.852-2.151
		c6.069-5.043,13.862-8.081,22.35-8.081C70.172,31.657,85.883,47.371,85.883,66.684z M27.736,40.407l1.846,2.145
		c-5.56,4.834-9.45,11.535-10.683,19.121l-2.657-0.337C17.516,53.048,21.713,45.715,27.736,40.407z M14.175,61.37
		c-0.251,1.737-0.387,3.51-0.387,5.314c0,3.239,0.443,6.373,1.229,9.367c-4.638-0.187-8.06-3.475-8.352-8.103
		C6.666,67.949,10.268,64.784,14.175,61.37z M94.738,74.367v62.422h-88.1V74.367c-0.003-0.006-0.007-0.01-0.01-0.016
		c2.073,2.575,5.248,4.229,8.804,4.229h30.456h40.057c3.558,0,6.729-1.654,8.806-4.229C94.744,74.357,94.74,74.361,94.738,74.367z"
		/>
	<path opacity="0.2" fill="#02263E" enable-background="new    " d="M4.657,138.637V68.8C3.386,69.926,2.156,71.025,1,72.066v70.045
		h93.125v-3.65L4.657,138.637z"/>
</g>
<g opacity="0.2">
	<path fill="#02263E" d="M86.939,18.265L62.563,18.89v-4h-13v-9l-3.135-0.042v11l13.134,0.042c0,2,0,3.023,0,4h23.627
		c1.756,0,6.332-0.354,8.041-3.583C90.775,17.39,87.424,18.265,86.939,18.265z"/>
</g>
<g>
	<path fill="#02263E" d="M86.979,18.89H61.579v-18h25.399c4.785,0,8.681,3.895,8.681,8.68v0.641
		C95.658,14.996,91.764,18.89,86.979,18.89z M63.578,16.89h23.4c3.684,0,6.68-2.996,6.68-6.68V9.568c0-3.686-2.996-6.682-6.68-6.682
		h-23.4V16.89z"/>
</g>
<g>
	<path fill="#02263E" d="M86.855,14.832h-1V4.948h1c2.637,0,4.783,2.146,4.783,4.782v0.315
		C91.639,12.686,89.492,14.832,86.855,14.832z M87.855,7.135v5.511c1.041-0.402,1.783-1.415,1.783-2.598V9.733
		C89.639,8.55,88.896,7.537,87.855,7.135z"/>
</g>
<g>
	<path fill="#02263E" d="M63.578,15.77h-14.64V4.009h14.64V15.77z M50.938,13.77h10.642V6.01H50.938V13.77z"/>
</g>
<g>
	<rect x="54.105" y="7.265" fill="#02263E" width="3.75" height="2"/>
</g>
<g>
	<rect x="54.105" y="10.348" fill="#02263E" width="3.75" height="2"/>
</g>
<g opacity="0.1">
	<path d="M12.469,63.393c-0.498-0.277-1.925-0.106-3.64,0.426c-3.001,2.051-5.533,5.072-5.71,9.924
		c-0.032,0.117-0.328-0.014-0.386-0.049c-0.811-1.555-1.131-3.192-0.455-5.551c0.125-0.21-0.287-0.47-0.361-0.395
		c-0.149,0.146-0.769,0.808-1.18,1.521c-2.037,3.536-0.704,8.066,2.861,10.049c3.567,1.986,8.067,0.705,10.053-2.865
		C15.948,72.343,13.815,64.146,12.469,63.393z"/>
	<g>
		<path d="M25.233,65.367c-4.23,0-7.297,3.146-7.297,7.472c0,4.367,3.062,7.416,7.444,7.416c2.214,0,3.967-0.692,5.359-2.116
			c0.417-0.451,0.462-0.886,0.462-1.05c0-0.707-0.525-1.221-1.248-1.221c-0.365,0-0.67,0.139-1.021,0.461
			c-0.789,0.734-1.827,1.488-3.553,1.488c-2.399,0-4.35-1.803-4.473-4.113h9.548c1.039,0,1.541-0.488,1.541-1.483
			c0-0.296,0-0.506-0.057-0.926C31.421,67.585,28.916,65.367,25.233,65.367L25.233,65.367z M25.233,67.685
			c2.29,0,3.762,1.465,3.853,3.82h-8.177C21.123,69.321,22.969,67.685,25.233,67.685z M41.112,65.367
			c-1.92,0-3.819,1.105-4.563,2.639v-0.949c0-1.466-1.138-1.542-1.366-1.542c-0.674,0-1.395,0.406-1.395,1.542v11.447
			c0,1.525,1.212,1.605,1.453,1.605c0.242,0,1.455-0.078,1.455-1.605v-6.137c0-2.669,1.513-4.534,3.68-4.534
			c2.098,0,3.117,1.374,3.117,4.208v6.463c0,1.525,1.211,1.605,1.453,1.605c0.244,0,1.457-0.078,1.457-1.605V71.13
			C46.403,68.342,45.015,65.367,41.112,65.367L41.112,65.367z M59.562,65.515c-0.674,0-1.157,0.392-1.45,1.164l-3.979,10.005
			l-3.951-10.005c-0.304-0.783-0.791-1.164-1.476-1.164c-0.804,0-1.453,0.629-1.453,1.393c0,0.194,0.021,0.439,0.181,0.828
			l4.569,10.794c0.55,1.303,1.443,1.576,2.101,1.576c0.658,0,1.557-0.273,2.1-1.576l4.602-10.856
			c0.159-0.38,0.185-0.659,0.185-0.793C60.987,66.104,60.375,65.515,59.562,65.515z M68.021,65.367
			c-1.862,0-3.594,0.521-4.881,1.459c-0.434,0.299-0.646,0.677-0.646,1.148c0,0.648,0.495,1.157,1.129,1.157
			c0.276,0,0.58-0.108,0.863-0.307c1.104-0.737,2.143-1.081,3.27-1.081c2.148,0,3.384,1.092,3.384,3.001v0.316
			c-4.826,0.006-9.74,0.586-9.74,4.785c0,3.024,2.587,4.379,5.147,4.379c2.037,0,3.666-0.808,4.71-2.336v0.731
			c0,1.099,0.735,1.486,1.366,1.486c0.133,0,1.306-0.043,1.306-1.486V70.92C73.931,67.445,71.722,65.367,68.021,65.367z
			 M70.527,73.205h0.612v0.67c0,2.449-1.563,4.035-3.977,4.035c-0.657,0-2.795-0.156-2.795-2.121
			C64.369,73.471,67.884,73.205,70.527,73.205L70.527,73.205z M81.503,68.155c1.273,0,1.335-0.99,1.335-1.188
			c0-0.589-0.35-1.217-1.335-1.217h-2.617v-2.648c0-1.184-0.767-1.602-1.425-1.602c-0.243,0-1.452,0.077-1.452,1.602v12.569
			c0,2.9,1.43,4.435,4.135,4.435c0.699,0,1.385-0.121,1.832-0.332c0.512-0.256,0.805-0.674,0.805-1.152
			c0-0.672-0.488-1.158-1.159-1.158c-0.13,0-0.313,0.031-0.519,0.091c-0.252,0.063-0.416,0.088-0.603,0.088
			c-1.103,0-1.614-0.724-1.614-2.265v-7.221L81.503,68.155L81.503,68.155z M91.121,65.367c-4.401,0-7.592,3.121-7.592,7.414
			c0,2.092,0.772,4,2.179,5.367c1.393,1.358,3.313,2.104,5.41,2.104c4.343,0,7.621-3.211,7.621-7.471
			C98.739,68.486,95.536,65.367,91.121,65.367L91.121,65.367z M91.121,77.789c-3.017,0-4.593-2.521-4.593-5.008
			c0-3.419,2.38-4.977,4.593-4.977s4.597,1.558,4.597,4.977C95.715,76.225,93.334,77.789,91.121,77.789z"/>
	</g>
</g>
</svg>
