<?xml version="1.0" encoding="utf-8"?>
<!-- Generator: Adobe Illustrator 15.0.0, SVG Export Plug-In . SVG Version: 6.00 Build 0)  -->
<!DOCTYPE svg PUBLIC "-//W3C//DTD SVG 1.1//EN" "http://www.w3.org/Graphics/SVG/1.1/DTD/svg11.dtd">
<svg version="1.1" id="about" xmlns="http://www.w3.org/2000/svg" xmlns:xlink="http://www.w3.org/1999/xlink" x="0px" y="0px"
	 width="123.833px" height="107.439px" viewBox="0 0 123.833 107.439" enable-background="new 0 0 123.833 107.439"
	 xml:space="preserve">
<g>
	<g>
		<path fill="#02263E" d="M76.109,77.187L46.032,47.108L78.26,14.881l30.076,30.077L76.109,77.187z M48.86,47.108l27.249,27.249
			l29.397-29.397L78.26,17.709L48.86,47.108z"/>
	</g>
	<path fill="#02263E" d="M86.982,36.235c-4.528-4.529-11.899-4.529-16.431,0c-2.155,2.155-3.272,4.955-3.377,7.784
		c-5.422-0.809-11.614,1.06-16.575,5.429l1.84,1.84c4.539-3.939,10.162-5.586,14.921-4.66c0.419,2.213,1.48,4.329,3.191,6.038
		c1.709,1.71,3.824,2.772,6.037,3.19c0.927,4.761-0.721,10.381-4.659,14.92l1.841,1.842c4.369-4.96,6.236-11.153,5.43-16.575
		c2.828-0.104,5.629-1.223,7.782-3.377C91.513,48.136,91.514,40.765,86.982,36.235z M85.167,38.052
		c2.062,2.063,2.908,4.877,2.562,7.566c-1.2-2.867-4.058-7.416-10.576-10.063C79.973,35.046,82.989,35.875,85.167,38.052z
		 M72.37,50.848c-3.529-3.528-3.529-9.269,0-12.796c0.918-0.917,1.985-1.591,3.125-2.031c8.471,2.886,11.104,9,11.815,11.375
		c-0.433,1.262-1.142,2.448-2.146,3.453C81.638,54.377,75.897,54.377,72.37,50.848z"/>
	<circle fill="#02263E" cx="77.141" cy="41.925" r="0.896"/>
	<circle fill="#02263E" cx="81.472" cy="46.255" r="0.896"/>
	<g>
		<path fill="#02263E" d="M74.439,48.916c-0.043-0.042-0.085-0.087-0.126-0.132c-1.13-1.262-0.934-3.001-0.925-3.075
			c0.032-0.273,0.28-0.468,0.555-0.437c0.272,0.033,0.47,0.279,0.438,0.555c-0.002,0.014-0.146,1.376,0.682,2.295
			c0.543,0.607,1.404,0.9,2.559,0.889c0.276-0.003,0.502,0.218,0.506,0.494c0.002,0.277-0.219,0.502-0.494,0.506
			C76.254,50.026,75.18,49.657,74.439,48.916z"/>
	</g>
</g>
<polygon opacity="0.2" fill="#02263E" enable-background="new    " points="58.84,103.487 7.582,77.47 39.1,16.036 40.091,16.544 
	41.7,13.998 37.801,11.997 3.544,78.771 57.521,106.462 "/>
<polygon opacity="0.2" fill="#02263E" enable-background="new    " points="65.413,93.831 26.111,55.833 74.105,6.193 74.905,6.967 
	77.185,4.998 74.034,1.951 21.869,55.906 65.067,97.67 66.327,95.326 "/>
<path fill="#02263E" d="M121.026,45.089L78.129,2.191L60.029,20.289l-18.563-9.523L7.211,77.538l53.978,27.69l4.696-9.15
	l2.076,2.074L121.026,45.089z M116.784,45.089L67.961,93.912L29.305,55.257L78.129,6.433L116.784,45.089z M37.488,67.683
	L27.367,62.49l1.672-3.258L37.488,67.683z M37.416,42.903l8.93-17.404l5.602,2.874L37.416,42.903z M59.889,101.192L11.25,76.24
	l31.518-61.435l15.035,7.713l-4.369,4.369l-7.954-4.081L32.801,47.519l-7.738,7.738l2.49,2.49l-2.877,5.608l17.428,8.939
	L63.655,93.85L59.889,101.192z"/>
<g opacity="0.1">
	<path d="M25.261,45.613c-0.498-0.277-1.925-0.106-3.64,0.426c-3.001,2.051-5.533,5.072-5.71,9.924
		c-0.032,0.117-0.328-0.014-0.386-0.049c-0.811-1.555-1.131-3.192-0.455-5.551c0.125-0.21-0.287-0.47-0.361-0.395
		c-0.149,0.146-0.769,0.808-1.18,1.521c-2.037,3.536-0.704,8.066,2.861,10.049c3.567,1.986,8.067,0.705,10.053-2.865
		C28.74,54.563,26.606,46.365,25.261,45.613z"/>
	<g>
		<path d="M38.024,47.587c-4.23,0-7.297,3.146-7.297,7.472c0,4.367,3.062,7.416,7.444,7.416c2.214,0,3.967-0.692,5.359-2.116
			c0.417-0.451,0.462-0.886,0.462-1.05c0-0.707-0.525-1.221-1.248-1.221c-0.365,0-0.67,0.139-1.021,0.461
			c-0.789,0.734-1.827,1.488-3.553,1.488c-2.399,0-4.35-1.803-4.473-4.113h9.548c1.039,0,1.541-0.488,1.541-1.483
			c0-0.296,0-0.506-0.057-0.926C44.212,49.805,41.708,47.587,38.024,47.587L38.024,47.587z M38.024,49.905
			c2.29,0,3.762,1.465,3.853,3.82h-8.177C33.915,51.541,35.761,49.905,38.024,49.905z M53.904,47.587
			c-1.92,0-3.819,1.105-4.563,2.639v-0.949c0-1.466-1.138-1.542-1.366-1.542c-0.674,0-1.395,0.406-1.395,1.542v11.447
			c0,1.525,1.212,1.605,1.453,1.605c0.242,0,1.455-0.078,1.455-1.605v-6.137c0-2.669,1.513-4.534,3.68-4.534
			c2.098,0,3.117,1.374,3.117,4.208v6.463c0,1.525,1.211,1.605,1.453,1.605c0.244,0,1.457-0.078,1.457-1.605V53.35
			C59.195,50.562,57.806,47.587,53.904,47.587L53.904,47.587z M72.353,47.735c-0.674,0-1.157,0.392-1.45,1.164l-3.979,10.005
			l-3.951-10.005c-0.304-0.783-0.791-1.164-1.476-1.164c-0.804,0-1.453,0.629-1.453,1.393c0,0.194,0.021,0.439,0.181,0.828
			l4.569,10.794c0.55,1.303,1.443,1.576,2.101,1.576c0.658,0,1.557-0.273,2.1-1.576l4.602-10.856
			c0.159-0.38,0.185-0.659,0.185-0.793C73.779,48.323,73.167,47.735,72.353,47.735z M80.812,47.587
			c-1.862,0-3.594,0.521-4.881,1.459c-0.434,0.299-0.646,0.677-0.646,1.148c0,0.648,0.495,1.157,1.129,1.157
			c0.276,0,0.58-0.108,0.863-0.307c1.104-0.737,2.143-1.081,3.27-1.081c2.148,0,3.384,1.092,3.384,3.001v0.316
			c-4.826,0.006-9.74,0.586-9.74,4.785c0,3.024,2.587,4.379,5.147,4.379c2.037,0,3.666-0.808,4.71-2.336v0.731
			c0,1.099,0.735,1.486,1.366,1.486c0.133,0,1.306-0.043,1.306-1.486V53.14C86.722,49.665,84.513,47.587,80.812,47.587z
			 M83.319,55.425h0.612v0.67c0,2.449-1.563,4.035-3.977,4.035c-0.657,0-2.795-0.156-2.795-2.121
			C77.161,55.691,80.675,55.425,83.319,55.425L83.319,55.425z M94.294,50.375c1.273,0,1.335-0.99,1.335-1.188
			c0-0.589-0.35-1.217-1.335-1.217h-2.617v-2.648c0-1.184-0.767-1.602-1.425-1.602c-0.243,0-1.452,0.077-1.452,1.602v12.569
			c0,2.9,1.43,4.435,4.135,4.435c0.699,0,1.385-0.121,1.832-0.332c0.512-0.256,0.805-0.674,0.805-1.152
			c0-0.672-0.488-1.158-1.159-1.158c-0.13,0-0.313,0.031-0.519,0.091c-0.252,0.063-0.416,0.088-0.603,0.088
			c-1.103,0-1.614-0.724-1.614-2.265v-7.221L94.294,50.375L94.294,50.375z M103.913,47.587c-4.401,0-7.592,3.121-7.592,7.414
			c0,2.092,0.772,4,2.179,5.367c1.393,1.358,3.313,2.104,5.41,2.104c4.343,0,7.621-3.211,7.621-7.471
			C111.531,50.706,108.328,47.587,103.913,47.587L103.913,47.587z M103.913,60.009c-3.017,0-4.593-2.521-4.593-5.008
			c0-3.419,2.38-4.977,4.593-4.977s4.597,1.558,4.597,4.977C108.506,58.445,106.125,60.009,103.913,60.009z"/>
	</g>
</g>
</svg>
