<?xml version="1.0" encoding="utf-8"?>
<!-- Generator: Adobe Illustrator 15.0.0, SVG Export Plug-In . SVG Version: 6.00 Build 0)  -->
<!DOCTYPE svg PUBLIC "-//W3C//DTD SVG 1.1//EN" "http://www.w3.org/Graphics/SVG/1.1/DTD/svg11.dtd">
<svg version="1.1" id="contacts" xmlns="http://www.w3.org/2000/svg" xmlns:xlink="http://www.w3.org/1999/xlink" x="0px" y="0px"
	 width="128.75px" height="167px" viewBox="0 0 128.75 167" enable-background="new 0 0 128.75 167" xml:space="preserve">
<g>
	<path fill="#02263E" d="M5.487,143.877"/>
</g>
<g>
	<path fill="#02263E" d="M5.757,143.916"/>
</g>
<g>
	<path fill="#02263E" d="M8.047,86.941v0.49v75.51h119V87.434v-0.492H8.047L8.047,86.941z M124.047,159.941h-113V92.68l56.5,35.521
		l56.5-35.521V159.941z M67.645,125.076L11.544,89.941h112.198L67.645,125.076z"/>
</g>
<g>
	<path fill="#02263E" d="M39.047,152.941h-19v-17h19V152.941z M22.047,150.941h15v-13h-15V150.941z"/>
</g>
<g>
	<line fill="none" x1="81.047" y1="137.941" x2="45.047" y2="137.941"/>
	<rect x="45.047" y="135.941" fill="#02263E" width="36" height="2"/>
</g>
<g>
	<line fill="none" x1="67.047" y1="141.941" x2="45.047" y2="141.941"/>
	<rect x="45.047" y="139.941" fill="#02263E" width="22" height="2"/>
</g>
<g>
	<line fill="none" x1="70.047" y1="145.941" x2="45.047" y2="145.941"/>
	<rect x="45.047" y="143.941" fill="#02263E" width="25" height="2"/>
</g>
<g opacity="0.2">
	<polygon fill="#02263E" points="8.047,162.941 8.047,93.941 5.047,93.941 5.047,165.941 121.047,165.941 121.047,162.941 	"/>
</g>
<g>
	<g opacity="0.2">
		<polygon fill="#02263E" points="21.052,5.414 21.308,26.965 21.308,26.965 1.621,38.302 3.904,39.828 0.401,38.56 16.647,23.886 
			17.135,3.217 		"/>
	</g>
	<path fill="#02263E" d="M20.464,51.946l0.035,24.532l92.569-40.22l-92.679-35.2l0.036,25.398L-0.047,38.247L20.464,51.946z
		 M95.152,37.479l-73.615,13.07L4.447,39.131L95.152,37.479z M22.225,52.213l84.052-14.922L22.255,73.797L22.225,52.213z
		 M106.074,35.485l-83.887-9.308L22.155,3.612L106.074,35.485z M92.617,35.765L5.021,37.359l16.476-9.487L92.617,35.765z"/>
	<g opacity="0.2">
		<polygon fill="#02263E" points="21.103,72.526 17.155,74.791 16.422,53.427 1.733,38.774 21.454,51.676 		"/>
	</g>
</g>
<g opacity="0.1">
	<path d="M27.719,75.393c-0.498-0.277-1.925-0.106-3.64,0.426c-3.001,2.051-5.533,5.072-5.71,9.924
		c-0.032,0.117-0.328-0.014-0.386-0.049c-0.811-1.555-1.131-3.192-0.455-5.551c0.125-0.21-0.287-0.47-0.361-0.395
		c-0.149,0.146-0.769,0.808-1.18,1.521c-2.037,3.536-0.704,8.066,2.861,10.049c3.567,1.986,8.067,0.705,10.053-2.865
		C31.198,84.343,29.065,76.146,27.719,75.393z"/>
	<g>
		<path d="M40.483,77.367c-4.23,0-7.297,3.146-7.297,7.472c0,4.367,3.062,7.416,7.444,7.416c2.214,0,3.967-0.692,5.359-2.116
			c0.417-0.451,0.462-0.886,0.462-1.05c0-0.707-0.525-1.221-1.248-1.221c-0.365,0-0.67,0.139-1.021,0.461
			c-0.789,0.734-1.827,1.488-3.553,1.488c-2.399,0-4.35-1.803-4.473-4.113h9.548c1.039,0,1.541-0.488,1.541-1.483
			c0-0.296,0-0.506-0.057-0.926C46.671,79.585,44.166,77.367,40.483,77.367L40.483,77.367z M40.483,79.685
			c2.29,0,3.762,1.465,3.853,3.82h-8.177C36.373,81.321,38.219,79.685,40.483,79.685z M56.362,77.367
			c-1.92,0-3.819,1.105-4.563,2.639v-0.949c0-1.466-1.138-1.542-1.366-1.542c-0.674,0-1.395,0.406-1.395,1.542v11.447
			c0,1.525,1.212,1.605,1.453,1.605c0.242,0,1.455-0.078,1.455-1.605v-6.137c0-2.669,1.513-4.534,3.68-4.534
			c2.098,0,3.117,1.374,3.117,4.208v6.463c0,1.525,1.211,1.605,1.453,1.605c0.244,0,1.457-0.078,1.457-1.605V83.13
			C61.653,80.342,60.265,77.367,56.362,77.367L56.362,77.367z M74.812,77.515c-0.674,0-1.157,0.392-1.45,1.164l-3.979,10.005
			l-3.951-10.005c-0.304-0.783-0.791-1.164-1.476-1.164c-0.804,0-1.453,0.629-1.453,1.393c0,0.194,0.021,0.439,0.181,0.828
			l4.569,10.794c0.55,1.303,1.443,1.576,2.101,1.576c0.658,0,1.557-0.273,2.1-1.576l4.602-10.856
			c0.159-0.38,0.185-0.659,0.185-0.793C76.237,78.104,75.625,77.515,74.812,77.515z M83.271,77.367
			c-1.862,0-3.594,0.521-4.881,1.459c-0.434,0.299-0.646,0.677-0.646,1.148c0,0.648,0.495,1.157,1.129,1.157
			c0.276,0,0.58-0.108,0.863-0.307c1.104-0.737,2.143-1.081,3.27-1.081c2.148,0,3.384,1.092,3.384,3.001v0.316
			c-4.826,0.006-9.74,0.586-9.74,4.785c0,3.024,2.587,4.379,5.147,4.379c2.037,0,3.666-0.808,4.71-2.336v0.731
			c0,1.099,0.735,1.486,1.366,1.486c0.133,0,1.306-0.043,1.306-1.486V82.92C89.181,79.445,86.972,77.367,83.271,77.367z
			 M85.777,85.205h0.612v0.67c0,2.449-1.563,4.035-3.977,4.035c-0.657,0-2.795-0.156-2.795-2.121
			C79.619,85.471,83.134,85.205,85.777,85.205L85.777,85.205z M96.753,80.155c1.273,0,1.335-0.99,1.335-1.188
			c0-0.589-0.35-1.217-1.335-1.217h-2.617v-2.648c0-1.184-0.767-1.602-1.425-1.602c-0.243,0-1.452,0.077-1.452,1.602v12.569
			c0,2.9,1.43,4.435,4.135,4.435c0.699,0,1.385-0.121,1.832-0.332c0.512-0.256,0.805-0.674,0.805-1.152
			c0-0.672-0.488-1.158-1.159-1.158c-0.13,0-0.313,0.031-0.519,0.091c-0.252,0.063-0.416,0.088-0.603,0.088
			c-1.103,0-1.614-0.724-1.614-2.265v-7.221L96.753,80.155L96.753,80.155z M106.371,77.367c-4.401,0-7.592,3.121-7.592,7.414
			c0,2.092,0.772,4,2.179,5.367c1.393,1.358,3.313,2.104,5.41,2.104c4.343,0,7.621-3.211,7.621-7.471
			C113.989,80.486,110.786,77.367,106.371,77.367L106.371,77.367z M106.371,89.789c-3.017,0-4.593-2.521-4.593-5.008
			c0-3.419,2.38-4.977,4.593-4.977s4.597,1.558,4.597,4.977C110.965,88.225,108.584,89.789,106.371,89.789z"/>
	</g>
</g>
</svg>
